<?xml version="1.0" encoding="iso-8859-1"?>
<!-- Generator: Adobe Illustrator 16.0.0, SVG Export Plug-In . SVG Version: 6.00 Build 0)  -->
<!DOCTYPE svg PUBLIC "-//W3C//DTD SVG 1.1//EN" "http://www.w3.org/Graphics/SVG/1.1/DTD/svg11.dtd">
<svg version="1.1" id="Capa_1" xmlns="http://www.w3.org/2000/svg" xmlns:xlink="http://www.w3.org/1999/xlink" x="0px" y="0px"
	 width="614.5px" height="614.5px" viewBox="0 0 614.5 614.5" style="enable-background:new 0 0 614.5 614.5;" xml:space="preserve"
	>
<g>
	<g>
		<g>
			<path d="M1.27,209.661c0-5.281,4.301-9.562,9.562-9.562c5.261,0,9.562,4.301,9.562,9.562v345.868
				c0,10.941,4.501,20.903,11.703,28.126c7.221,7.222,17.183,11.723,28.125,11.723h494.077c10.941,0,20.903-4.501,28.125-11.723
				c7.223-7.223,11.702-17.185,11.702-28.126V209.661c0-5.281,4.301-9.562,9.563-9.562c5.261,0,9.562,4.301,9.562,9.562v345.868
				c0,16.224-6.642,30.985-17.304,41.647c-10.683,10.684-25.425,17.323-41.647,17.323H60.222c-16.223,0-30.986-6.641-41.648-17.323
				C7.911,586.515,1.27,571.752,1.27,555.528V209.661z"/>
			<path d="M186.525,243.928H94.487v104.379h92.038V243.928L186.525,243.928z M84.925,224.804h110.922h0.24
				c5.281,0,9.562,4.301,9.562,9.562V357.63v0.24c0,5.281-4.301,9.562-9.562,9.562H85.167h-0.24c-5.281,0-9.562-4.301-9.562-9.562
				V234.605v-0.24C75.345,229.104,79.646,224.804,84.925,224.804z"/>
			<path d="M520.031,243.928h-92.037v104.379h92.037V243.928L520.031,243.928z M418.412,224.804h110.922h0.26
				c5.281,0,9.562,4.301,9.562,9.562V357.63v0.24c0,5.281-4.301,9.562-9.562,9.562H418.671h-0.24c-5.28,0-9.582-4.301-9.582-9.562
				V234.605v-0.24C408.849,229.104,413.15,224.804,418.412,224.804z"/>
			<path d="M353.258,243.928h-92.038v104.379h92.038V243.928L353.258,243.928z M251.659,224.804h110.922h0.26
				c5.281,0,9.562,4.301,9.562,9.562V357.63v0.24c0,5.281-4.302,9.562-9.562,9.562H251.918h-0.26c-5.281,0-9.562-4.301-9.562-9.562
				V234.605v-0.24C242.097,229.104,246.397,224.804,251.659,224.804z"/>
			<path d="M186.525,416.882H94.487v104.38h92.038V416.882L186.525,416.882z M84.925,397.737h110.922h0.24
				c5.281,0,9.562,4.302,9.562,9.562v123.265v0.261c0,5.28-4.301,9.562-9.562,9.562H85.167h-0.24c-5.281,0-9.562-4.301-9.562-9.562
				V407.56v-0.239C75.345,402.039,79.646,397.737,84.925,397.737z"/>
			<path d="M520.031,416.882h-92.037v104.38h92.037V416.882L520.031,416.882z M418.412,397.737h110.922h0.26
				c5.281,0,9.562,4.302,9.562,9.562v123.265v0.261c0,5.28-4.301,9.562-9.562,9.562H418.671h-0.24c-5.28,0-9.582-4.301-9.582-9.562
				V407.56v-0.239C408.849,402.039,413.15,397.737,418.412,397.737z"/>
			<path d="M353.258,416.882h-92.038v104.38h92.038V416.882L353.258,416.882z M251.659,397.737h110.922h0.26
				c5.281,0,9.562,4.302,9.562,9.562v123.265v0.261c0,5.28-4.302,9.562-9.562,9.562H251.918h-0.26c-5.281,0-9.562-4.301-9.562-9.562
				V407.56v-0.239C242.097,402.039,246.397,397.737,251.659,397.737z"/>
			<path d="M460.259,112.722c0,5.281-4.301,9.562-9.562,9.562c-5.281,0-9.563-4.301-9.563-9.562V9.562
				C441.115,4.301,445.416,0,450.676,0c5.281,0,9.563,4.301,9.563,9.562v103.16H460.259z"/>
			<path d="M173.383,112.722c0,5.281-4.301,9.562-9.562,9.562c-5.281,0-9.562-4.301-9.562-9.562V9.562
				C154.24,4.301,158.541,0,163.801,0c5.281,0,9.582,4.301,9.582,9.562V112.722z"/>
			<path d="M163.801,47.869c5.281,0,9.562,4.281,9.562,9.562c0,5.281-4.301,9.562-9.562,9.562H60.222
				c-10.862,0-20.824,4.521-28.085,11.763l-0.46,0.46c-6.961,7.162-11.302,16.963-11.302,27.605v43.869h573.733v-43.869
				c0-10.902-4.521-20.844-11.742-28.065l-0.46-0.48c-7.183-6.961-16.983-11.282-27.646-11.282h-65.394
				c-5.28,0-9.562-4.301-9.562-9.562c0-5.281,4.301-9.562,9.562-9.562h65.394c15.764,0,30.307,6.421,40.968,16.763l0.66,0.6
				c10.662,10.682,17.345,25.405,17.345,41.588v53.17v0.26c0,5.281-4.302,9.562-9.563,9.562H11.071h-0.26
				c-5.261,0.02-9.562-4.281-9.562-9.562v-53.43c0-15.783,6.421-30.286,16.763-40.948l0.6-0.66
				C29.314,54.511,44.058,47.85,60.221,47.85H163.8L163.801,47.869L163.801,47.869z M450.677,47.869H202.028
				c-5.281,0-9.562,4.281-9.562,9.562c0,5.281,4.301,9.562,9.562,9.562h248.648c5.281,0,9.563-4.301,9.563-9.562
				C460.259,52.15,455.958,47.869,450.677,47.869z"/>
		</g>
	</g>
</g>
</svg>
