<?xml version="1.0" encoding="iso-8859-1"?>
<!-- Generator: Adobe Illustrator 18.1.1, SVG Export Plug-In . SVG Version: 6.00 Build 0)  -->
<svg version="1.1" id="Capa_1" xmlns="http://www.w3.org/2000/svg" xmlns:xlink="http://www.w3.org/1999/xlink" x="0px" y="0px"
	 viewBox="0 0 204.037 204.037" style="enable-background:new 0 0 204.037 204.037;" xml:space="preserve">
<g>
	<path style="fill:#010002;" d="M168.75,118.263l-0.426-0.49c-1.986-2.473-6.342-5.966-12.673-8.378l-1.009-0.301
		c-6.961-3.21-13.206-5.3-14.43-5.698c-1.396-0.462-2.552-0.956-3.493-1.371c-7.258-3.575-8.203-5.665-8.349-6.138l-0.372-0.852
		l0.333-0.784c5.436-6.764,9.255-14.659,10.726-22.132l0.225-0.523c1.496-1.897,2.459-4.126,2.831-6.582
		c1.714-6.238,1.804-10.812,0.261-14.004l-0.168-0.344l0.086-0.372c1.933-8.07,3.79-23.195-5.479-33.727
		c-1.471-1.84-7.118-8.117-18.166-11.349l-5.39-1.843C104.248,0.605,98.665,0.007,97.932,0c-0.587,0-1.102,0.057-1.85,0.24
		l-0.727,0.118c-2.849-0.458-6.37,0.827-7.322,1.195c-3.114,1.303-18.878,8.593-23.871,24.05c-0.83,2.187-2.52,8.865-0.326,23.488
		l0.064,0.447L63.628,49.9c-2.24,2.995-2.412,7.873-0.533,14.462c0.476,2.906,1.424,5.222,2.834,7l0.251,0.53
		c1.367,7.644,4.771,15.207,9.842,21.86l0.469,0.63l-0.447,0.644c-0.218,0.329-0.369,0.662-0.401,0.87
		c-1.26,3.59-15.285,9.849-27.586,13.61c-8.85,3.35-12.737,8.772-12.755,8.815c-12.2,18.088-13.739,56.925-13.804,58.6
		c0.193,10.1,4.781,12.157,5.665,12.451l0.773,0.344c26.963,11.764,66.341,14.054,70.75,14.28l1.378,0.043
		c1.321,0,2.648-0.075,3.901-0.136l0.107-0.011l0.404,0.032c0.333,0.082,0.587,0.115,0.863,0.115h0.007h0.183
		c1.793-0.093,44.074-2.494,70.46-14.344c1.915-0.497,6.385-2.781,6.549-13.059C182.475,174.977,180.711,136.057,168.75,118.263z
		 M80.059,99.907l0.734-0.684l0.727,0.691c6.463,6.088,13.61,9.437,20.12,9.437c6.839,0,13.897-2.974,20.421-8.589l0.54-0.465
		l1.428,0.694c1.206,1.113,3.382,2.695,4.359,3.174l1.353,0.655l-0.147,0.147l0.523,0.311c1.228,0.727,2.541,1.432,4.041,2.18
		c1.525,0.669,2.824,1.174,4.191,1.632c0.276,0.093,6.714,2.172,14.061,5.572l1.31,0.404c6.975,2.659,9.917,6.403,10.024,6.535
		c10.822,16.058,12.651,51.142,12.823,55.064c-0.082,5.497-1.636,6.9-2.058,7.179c-24.257,10.862-60.912,13.678-68.002,14.133
		l-0.2,0.011l-0.204-0.057c-0.233-0.079-0.483-0.111-0.784-0.111h-0.007l-0.243,0.011c-1.943,0.132-3.547,0.197-5.046,0.197h-1.17
		c-4.427-0.258-43.941-2.856-69.24-14.111c-0.515-0.208-2.011-1.933-2.115-6.972c0.011-0.372,1.299-38.236,12.662-55.111
		c0.555-0.705,3.643-4.302,9.82-6.66c5.426-1.675,18.85-6.123,26.194-11.442c0.333-0.193,0.666-0.544,0.938-0.83
		C77.65,102.316,78.767,101.117,80.059,99.907z M68.531,53.447l0.254-0.29c0.988-0.716,1.464-1.84,1.278-2.988
		c-2.462-14.849-0.852-21.033-0.297-22.59C74.064,14.391,87.61,8.217,90.269,7.125c0.555-0.218,1.589-0.533,2.684-0.709l0.276-0.061
		l2.244-0.125l0.011,0.132l0.48-0.043c0.447-0.043,0.873-0.111,1.389-0.215l0.515-0.118c0.415,0.004,5.644,0.659,13.524,3.074
		l5.436,1.865c9.913,2.931,14.53,8.421,15.378,9.516c7.967,9.037,5.841,22.665,3.862,29.987c-0.225,0.841-0.082,1.718,0.394,2.437
		l0.44,0.573c0.727,0.966,1.002,4.219-0.626,10.257c-0.326,1.968-1.059,3.565-2.137,4.631c-0.376,0.415-0.655,0.977-0.759,1.578
		c-2.691,15.793-16.839,33.459-31.748,33.459c-12.676,0-27.124-16.259-29.722-33.448c-0.093-0.623-0.365-1.185-0.802-1.664
		c-1.081-1.12-1.772-2.738-2.194-5.139C67.669,58.597,67.54,54.96,68.531,53.447z"/>
</g>
</svg>
