<?xml version="1.0" encoding="utf-8"?>
<!-- Generator: Adobe Illustrator 18.0.0, SVG Export Plug-In . SVG Version: 6.00 Build 0)  -->
<!DOCTYPE svg PUBLIC "-//W3C//DTD SVG 1.0//EN" "http://www.w3.org/TR/2001/REC-SVG-20010904/DTD/svg10.dtd">
<svg version="1.0" id="Warstwa_1" xmlns="http://www.w3.org/2000/svg" xmlns:xlink="http://www.w3.org/1999/xlink" x="0px" y="0px"
	 viewBox="0.3 0.2 249.8 249.8" enable-background="new 0.3 0.2 249.8 249.8" xml:space="preserve">
<path fill="#F29223" d="M240.3,76.5c-6.5-15-15.5-28.2-26.9-39.6C202,25.5,188.8,16.5,173.8,10c-15-6.5-31.2-9.8-48.6-9.8
	S91.6,3.5,76.6,10c-15,6.5-28.2,15.5-39.6,26.9C25.6,48.3,16.6,61.5,10.1,76.5c-6.5,15-9.8,31.2-9.8,48.6c0,17.4,3.3,33.6,9.8,48.6
	c6.5,15,15.5,28.2,26.9,39.6c11.4,11.4,24.6,20.4,39.6,26.9c15,6.5,31.2,9.8,48.6,9.8s33.6-3.3,48.6-9.8c15-6.5,28.2-15.5,39.6-26.9
	c11.4-11.4,20.4-24.6,26.9-39.6c6.5-15,9.8-31.2,9.8-48.6C250.1,107.7,246.8,91.5,240.3,76.5z M162.1,175.1L116,128.9V54.5h19v66.2
	l40.7,40.7L162.1,175.1z"/>
</svg>
