<?xml version="1.0" encoding="utf-8"?>
<!-- Generator: Adobe Illustrator 18.0.0, SVG Export Plug-In . SVG Version: 6.00 Build 0)  -->
<!DOCTYPE svg PUBLIC "-//W3C//DTD SVG 1.0//EN" "http://www.w3.org/TR/2001/REC-SVG-20010904/DTD/svg10.dtd">
<svg version="1.0" id="Warstwa_1" xmlns="http://www.w3.org/2000/svg" xmlns:xlink="http://www.w3.org/1999/xlink" x="0px" y="0px"
	 viewBox="0 0 128.4 185.1" enable-background="new 0 0 128.4 185.1" xml:space="preserve">
<path fill="#FF9100" d="M0,61.7c0-17,6.3-31.6,18.8-43.6C31.3,6,46.5,0,64.2,0C81.9,0,97,6,109.6,18.1
	c12.5,12.1,18.8,26.6,18.8,43.6c0,8.8-1.4,16-4.1,21.6l-45.6,93.3c-1.3,2.7-3.3,4.7-6,6.3c-2.6,1.5-5.5,2.3-8.5,2.3
	c-3,0-5.8-0.8-8.5-2.3c-2.6-1.5-4.6-3.6-5.8-6.3L4.1,83.3C1.4,77.7,0,70.5,0,61.7z M41.5,39.9c-6.3,6-9.4,13.3-9.4,21.8
	s3.1,15.8,9.4,21.8c6.3,6,13.8,9,22.7,9c8.9,0,16.4-3,22.7-9c6.3-6,9.4-13.3,9.4-21.8s-3.1-15.8-9.4-21.8c-6.3-6-13.8-9-22.7-9
	C55.3,30.9,47.8,33.9,41.5,39.9z"/>
</svg>
