<?xml version="1.0" encoding="utf-8"?>
<!-- Generator: Adobe Illustrator 16.0.0, SVG Export Plug-In . SVG Version: 6.00 Build 0)  -->
<!DOCTYPE svg PUBLIC "-//W3C//DTD SVG 1.1//EN" "http://www.w3.org/Graphics/SVG/1.1/DTD/svg11.dtd">
<svg version="1.1" id="Layer_1" xmlns="http://www.w3.org/2000/svg" xmlns:xlink="http://www.w3.org/1999/xlink" x="0px" y="0px"
	 width="215px" height="215px" viewBox="0 0 215 215" enable-background="new 0 0 215 215" xml:space="preserve">
<g>
	<rect fill="#009D93" width="215" height="215"/>
	<path fill="#FFFFFF" d="M163.711,55.367c-7.948-7.946-18.516-12.325-29.757-12.325c-9.715,0-18.93,3.308-26.384,9.329
		C100.092,46.277,90.825,43,81.047,43c-0.002,0,0,0-0.002,0c-11.237,0-21.806,4.342-29.751,12.288
		c-7.949,7.949-12.327,18.497-12.327,29.737c0,11.239,4.378,21.798,12.319,29.74l56.152,56.385l56.27-56.273
		c0.009-0.011,0.021-0.021,0.031-0.032l3.175-3.556c5.911-7.414,9.118-16.544,9.118-26.169
		C176.034,73.882,171.657,63.314,163.711,55.367z M117.12,112.664l-27.242,27.242L79.08,129.062l26.631-26.631L117.12,112.664z
		 M107.451,157.555L96.652,146.71l27.625-27.626l11.411,10.235L107.451,157.555z M142.485,122.521L90.128,75.558l-6.409,7.147
		l14.835,13.306L72.305,122.26l-10.8-10.847l21.904-21.901l-6.787-6.789l-21.654,21.652c-4.153-5.57-6.4-12.296-6.4-19.367
		c0-8.675,3.379-16.831,9.516-22.966c6.133-6.134,14.287-9.512,22.964-9.512s16.833,3.378,22.97,9.516l49.507,49.438
		L142.485,122.521z M160.063,104.448l-45.473-45.409c5.566-4.153,12.295-6.396,19.363-6.396c8.677,0,16.833,3.378,22.968,9.514
		c6.133,6.133,9.511,14.289,9.511,22.964C166.433,92.177,164.198,98.89,160.063,104.448z"/>
</g>
</svg>
