<?xml version="1.0" encoding="utf-8"?>
<!-- Generator: Adobe Illustrator 16.0.0, SVG Export Plug-In . SVG Version: 6.00 Build 0)  -->
<!DOCTYPE svg PUBLIC "-//W3C//DTD SVG 1.1//EN" "http://www.w3.org/Graphics/SVG/1.1/DTD/svg11.dtd">
<svg version="1.1" id="Layer_1" xmlns="http://www.w3.org/2000/svg" xmlns:xlink="http://www.w3.org/1999/xlink" x="0px" y="0px"
	 width="215px" height="215px" viewBox="0 0 215 215" enable-background="new 0 0 215 215" xml:space="preserve">
<g>
	<rect fill="#009D93" width="215" height="215"/>
	<g>
		<polygon fill="#FFFFFF" points="105.67,123.085 84.367,98.119 93.209,90.578 105.67,105.182 118.127,90.584 126.967,98.125 		"/>
		<rect x="87.696" y="152.916" fill="#FFFFFF" width="35.948" height="11.622"/>
		<rect x="93.507" y="167.443" fill="#FFFFFF" width="24.327" height="11.621"/>
		<path fill="#FFFFFF" d="M131.34,149.73H77.959v-15.807c-15.24-9.531-24.566-26.206-24.566-44.328
			c0-28.826,23.453-52.28,52.281-52.28c28.824,0,52.273,23.454,52.273,52.28c0,18.852-10.33,36.335-26.607,45.539V149.73z
			 M89.58,138.108h30.139v-10.178l3.324-1.574c14.145-6.696,23.283-21.127,23.283-36.761c0-22.42-18.238-40.658-40.652-40.658
			c-22.421,0-40.66,18.238-40.66,40.658c0,15.016,8.238,28.757,21.5,35.861l3.066,1.643V138.108z"/>
	</g>
</g>
</svg>
