<?xml version="1.0" encoding="utf-8"?>
<!-- Generator: Adobe Illustrator 16.0.0, SVG Export Plug-In . SVG Version: 6.00 Build 0)  -->
<!DOCTYPE svg PUBLIC "-//W3C//DTD SVG 1.1//EN" "http://www.w3.org/Graphics/SVG/1.1/DTD/svg11.dtd">
<svg version="1.1" id="Layer_1" xmlns="http://www.w3.org/2000/svg" xmlns:xlink="http://www.w3.org/1999/xlink" x="0px" y="0px"
	 width="215px" height="215px" viewBox="0 0 215 215" enable-background="new 0 0 215 215" xml:space="preserve">
<rect fill="#009D93" width="215" height="215"/>
<path fill="#FFFFFF" d="M126.37,126H93.63l-9.333-84h51.407L126.37,126z M104.37,114h11.26l6.667-60H97.704L104.37,114z"/>
<path fill="#FFFFFF" d="M110.232,185.075c-11.346,0-20.578-9.23-20.578-20.577s9.231-20.578,20.578-20.578
	c11.347,0,20.578,9.231,20.578,20.578S121.579,185.075,110.232,185.075z M110.232,155.541c-4.938,0-8.956,4.019-8.956,8.957
	s4.017,8.956,8.956,8.956s8.957-4.018,8.957-8.956S115.171,155.541,110.232,155.541z"/>
</svg>
