<?xml version="1.0" encoding="utf-8"?>
<!-- Generator: Adobe Illustrator 18.0.0, SVG Export Plug-In . SVG Version: 6.00 Build 0)  -->
<!DOCTYPE svg PUBLIC "-//W3C//DTD SVG 1.0//EN" "http://www.w3.org/TR/2001/REC-SVG-20010904/DTD/svg10.dtd">
<svg version="1.0" id="Warstwa_1" xmlns="http://www.w3.org/2000/svg" xmlns:xlink="http://www.w3.org/1999/xlink" x="0px" y="0px"
	 viewBox="0 0 352 70" enable-background="new 0 0 352 70" xml:space="preserve">
<g>
	<path fill="#F29100" d="M317,0c-19.3,0-35,15.7-35,35c0,4.3,0.8,8.4,2.2,12.2c0.3,0.9,0.7,1.7,1.1,2.6C290.8,61.7,303,70,317,70
		c14,0,26.1-8.3,31.7-20.2c0.4-0.8,0.8-1.7,1.1-2.6c1.4-3.8,2.2-7.9,2.2-12.2C352,15.7,336.3,0,317,0z M317,67.4
		c-12.6,0-23.5-7.2-28.9-17.6h57.7C340.5,60.3,329.6,67.4,317,67.4z M306.2,47.2h-3.5l0.1-0.2c0,0-2.5-2.5-2.8-2.8
		c0-0.2,0-1.2-0.1-2.1c0.3,0,0.7,0,1,0c0.3,0,0.6-0.1,0.9-0.1l-0.1,1.5l0,0.3L306.2,47.2z M333.2,42.1c0.4,0.1,0.8,0.1,1.2,0.1
		c0.2,0,0.4,0,0.6-0.1c0.1,0.7,0.1,1.5,0.2,1.6c-0.1,0.2-1.4,2.4-2,3.5h-4.2l4.2-2.8L333.2,42.1z M347,47.2h-12.5l1.9-3.2l-0.2-2.2
		c2-0.6,3.6-2.1,4.6-5c1.2-3.8,1.4-4.5,2.3-5.3c2.5-2.3,3.1-6.6,3.1-6.6s-2.5-0.8-4.4-1.5c-1.9-0.8-4.2-1.9-4.2-1.9s0.5,3.4,0.6,5.1
		c0.2,1.7,0,3.1,0,3.1s-3.3,0.3-5.9,1.1c-2.7,0.8-4.7,2-5.5,1.7c-0.8-0.3-3.7-3.4-6.2-0.5c-1.9,2.2-1.1,3.4-1.6,5
		c-0.5,1.6-0.9,2.8-0.9,2.8s2.5-2.7,6.5-1.1c2.9,1.1,5.2,2.4,7.3,3c0,0.8-0.1,1.6-0.1,1.8c-0.5,0.3-5.1,3.4-5.1,3.4l0,0.1h-4
		c0.6-0.4,1.3-1.2,2-2.4c1.1-2.1,0.6-3.3,0.6-3.3h-17.3c0,0,0,1.7,0.8,3.3c0.5,0.9,1.2,1.8,1.6,2.4h-2.4c-0.8-0.6-4.8-3.6-5.2-3.9
		c0-0.2,0-0.8,0.1-1.4c4-1,6.5-3.7,8.7-5.4c2.5-2,5.9,0.6,5.9,0.6s-1.1-1.7-1.6-2.7c-0.5-0.9,0.1-2.5-2.5-4.8
		c-2.7-2.3-4.8,0.8-5.8,1.2c-0.9,0.5-2.5,0.3-4.5-0.3c-2-0.6-5.8,0-7.3,0.3c-1.6,0.3-1.4-2-1.4-3.7c0-1.7-0.3-4.5-0.3-4.5
		s-1.9,1.6-3.7,2.8c-1.9,1.2-3.4,1.9-3.4,1.9s1.5,3.4,2.8,4.5c1.2,1.1,3,2.2,4.1,4.8c0.6,1.5,2,4.4,4.7,5.3l0.1,2.9l2.4,2.4h-14.4
		c-1.5-3.8-2.4-7.9-2.4-12.2c0-17.9,14.5-32.4,32.4-32.4c17.9,0,32.4,14.5,32.4,32.4C349.4,39.3,348.5,43.4,347,47.2z"/>
	<g>
		<path fill="#F29100" d="M0,18.2h8.2c3.3,0,5.8,0.6,7.3,1.9c1.5,1.3,2.3,3.4,2.3,6.2c0,1.9-0.4,3.4-1.2,4.7c-0.8,1.3-1.9,2-3.3,2.3
			v0.2c1.8,0.5,3.1,1.3,3.9,2.5c0.8,1.2,1.2,2.9,1.2,5c0,2.9-0.8,5.2-2.3,6.8c-1.6,1.6-3.7,2.5-6.4,2.5H0V18.2z M5.6,31.1h2.7
			c1.3,0,2.1-0.3,2.7-1c0.5-0.7,0.8-1.7,0.8-3c0-1.3-0.3-2.3-0.9-2.9c-0.6-0.6-1.5-0.9-2.8-0.9H5.6V31.1z M5.6,36.1v9h3
			c1.2,0,2.2-0.4,2.8-1.1s0.9-1.9,0.9-3.5c0-2.9-1.3-4.3-3.8-4.3H5.6z"/>
		<path fill="#F29100" d="M34.5,50.4L33.3,47h-0.1c-0.9,1.4-1.8,2.4-2.7,3c-0.9,0.5-2.1,0.8-3.5,0.8c-1.8,0-3.2-0.7-4.3-2
			c-1-1.3-1.5-3.2-1.5-5.6c0-2.6,0.7-4.5,2.1-5.7s3.5-1.9,6.3-2.1l3.3-0.1v-1.8c0-2.3-1-3.4-3-3.4c-1.5,0-3.2,0.6-5.1,1.7l-2-4
			c2.4-1.5,5.1-2.3,7.9-2.3c2.6,0,4.6,0.7,5.9,2.2c1.4,1.5,2,3.6,2,6.3v16.4H34.5z M29.4,46.2c1.1,0,1.9-0.5,2.6-1.4
			c0.6-1,1-2.2,1-3.8v-2.1L31.1,39c-1.3,0.1-2.3,0.5-2.9,1.1c-0.6,0.7-0.9,1.7-0.9,3.1C27.2,45.2,28,46.2,29.4,46.2z"/>
		<path fill="#F29100" d="M55.7,50.4V35.8c0-1.8-0.2-3.1-0.6-4c-0.4-0.9-1.1-1.4-2.1-1.4c-1.3,0-2.2,0.6-2.8,1.9
			c-0.6,1.3-0.9,3.4-0.9,6.3v11.8h-5.8V25.9h4.6l0.7,3.1h0.4c0.5-1.1,1.3-2,2.3-2.6c1-0.6,2.1-1,3.5-1c2.2,0,3.9,0.8,5,2.3
			c1.1,1.5,1.7,3.8,1.7,6.7v16H55.7z"/>
		<path fill="#F29100" d="M72.1,37.2l1.5-2.9l4.8-8.4h6.2l-6.2,10L85,50.4h-6.1L74.4,40l-2.3,2.1v8.3h-5.8V16.2h5.8v16.1l-0.3,4.9
			H72.1z"/>
		<path fill="#F29100" d="M87.3,19.5c0-1,0.3-1.7,0.8-2.3c0.6-0.6,1.4-0.8,2.4-0.8c1,0,1.7,0.3,2.3,0.8c0.6,0.6,0.9,1.3,0.9,2.3
			c0,1-0.3,1.8-0.9,2.3c-0.6,0.5-1.3,0.8-2.3,0.8c-1,0-1.7-0.3-2.3-0.8C87.6,21.2,87.3,20.5,87.3,19.5z M93.4,50.4h-5.8V25.9h5.8
			V50.4z"/>
		<path fill="#F29100" d="M125.4,50.4H108v-4.2l10.3-22.7h-10v-5.2H125v4.2l-10.3,22.7h10.6V50.4z M113.3,12c0-2.1,1.1-3.1,3.4-3.1
			c2.2,0,3.4,1,3.4,3.1c0,1-0.3,1.8-0.9,2.4c-0.6,0.5-1.4,0.8-2.5,0.8c-1.1,0-1.9-0.3-2.5-0.8C113.6,13.9,113.3,13.1,113.3,12z"/>
		<path fill="#F29100" d="M126.3,25.9h6.1l3.4,13.8c0.3,1.2,0.6,3,0.8,5.2h0.1c0-0.4,0.1-1,0.2-1.9c0.1-0.9,0.2-1.6,0.3-2.1
			c0.1-0.5,1.1-5.5,3-15h6.2l-7,26.2c-0.9,3.2-2,5.5-3.4,6.9c-1.4,1.4-3.3,2.1-5.6,2.1c-1.2,0-2.2-0.1-3.1-0.4v-4.9
			c0.6,0.2,1.3,0.3,2,0.3c2,0,3.3-1.3,3.9-3.9l0.4-1.5L126.3,25.9z"/>
		<path fill="#F29100" d="M165.9,50.4l-2.4-14.2l-0.9-6h-0.1c-0.2,1.9-0.4,3.4-0.5,4.2c-0.1,0.9-1.1,6.2-2.8,16h-7.5l-4.9-24.5h5.9
			l2.2,13.5c0.3,1.5,0.5,3.7,0.7,6.6h0.1c0-0.8,0.1-2,0.3-3.6c0.2-1.6,0.3-2.6,0.4-3.1l2.4-13.5h7.5l2.4,13.5
			c0.3,1.4,0.5,3.6,0.7,6.6h0.1c0.2-2.6,0.5-4.8,0.8-6.6l2.3-13.5h5.7l-4.9,24.5H165.9z"/>
		<path fill="#F29100" d="M193.6,50.4V35.8c0-1.8-0.2-3.1-0.6-4c-0.4-0.9-1.1-1.4-2.1-1.4c-1.3,0-2.2,0.6-2.8,1.9
			c-0.6,1.3-0.9,3.4-0.9,6.3v11.8h-5.8V25.9h4.6l0.7,3.1h0.4c0.5-1.1,1.3-2,2.3-2.6c1-0.6,2.1-1,3.5-1c2.2,0,3.9,0.8,5,2.3
			c1.1,1.5,1.7,3.8,1.7,6.7v16H193.6z"/>
		<path fill="#F29100" d="M222.3,38.1c0,4-0.9,7.1-2.6,9.4c-1.7,2.2-4,3.4-7,3.4c-1.9,0-3.5-0.5-5-1.5c-1.4-1-2.5-2.5-3.3-4.4
			c-0.8-1.9-1.2-4.2-1.2-6.8c0-4,0.8-7.1,2.5-9.3c1.7-2.2,4-3.4,7-3.4c2.9,0,5.2,1.1,6.9,3.4C221.5,31.1,222.3,34.2,222.3,38.1z
			 M209.3,38.1c0,2.5,0.3,4.5,0.8,5.8c0.6,1.3,1.5,2,2.7,2c2.3,0,3.5-2.6,3.5-7.7c0-2.6-0.3-4.5-0.8-5.7c-0.6-1.3-1.5-1.9-2.7-1.9
			c-1.2,0-2.1,0.6-2.7,1.9C209.6,33.6,209.3,35.5,209.3,38.1z"/>
		<path fill="#F29100" d="M239.6,43.2c0,2.4-0.7,4.3-2.1,5.6c-1.4,1.3-3.5,2-6.2,2c-2.4,0-4.4-0.5-6-1.4v-5.1c0.8,0.6,1.7,1,2.8,1.4
			c1.1,0.4,2,0.5,2.8,0.5c0.9,0,1.6-0.2,2.1-0.7c0.5-0.4,0.7-1,0.7-1.8c0-0.7-0.2-1.4-0.7-2s-1.4-1.2-2.7-2c-1.8-1.1-3-2.2-3.8-3.4
			c-0.8-1.2-1.2-2.6-1.2-4.2c0-2.1,0.7-3.7,2.1-4.9c1.4-1.2,3.4-1.8,5.9-1.8c2.2,0,4.2,0.6,6.1,1.7l-1.9,4.2
			c-1.6-0.9-2.9-1.3-4.1-1.3c-0.7,0-1.3,0.2-1.7,0.6c-0.4,0.4-0.6,0.9-0.6,1.5c0,0.7,0.2,1.2,0.7,1.8c0.5,0.5,1.3,1.1,2.6,1.9
			c1.5,0.9,2.6,1.7,3.2,2.4c0.6,0.6,1.1,1.4,1.4,2.2C239.4,41.1,239.6,42.1,239.6,43.2z M229.7,23.1v-0.6c0.6-0.8,1.3-1.9,2.1-3.3
			c0.8-1.4,1.4-2.5,1.7-3.3h7v0.5c-0.4,0.6-1.2,1.6-2.6,3c-1.4,1.4-2.7,2.6-4,3.7H229.7z"/>
		<path fill="#F29100" d="M251.4,50.8c-2.9,0-5.1-1.1-6.7-3.2s-2.3-5.2-2.3-9.4c0-4.3,0.7-7.5,2.2-9.6c1.4-2.1,3.7-3.2,6.7-3.2
			c0.9,0,1.9,0.1,2.9,0.4c1,0.3,1.9,0.6,2.7,1.1l-1.7,4.5c-1.2-0.7-2.3-1.1-3.2-1.1c-1.2,0-2.1,0.6-2.7,1.9
			c-0.5,1.3-0.8,3.2-0.8,5.8c0,2.5,0.3,4.4,0.8,5.7c0.5,1.3,1.4,1.9,2.7,1.9c1.5,0,3-0.5,4.6-1.5v5.1
			C254.9,50.3,253.2,50.8,251.4,50.8z"/>
		<path fill="#F29100" d="M259.8,19.5c0-1,0.3-1.7,0.8-2.3c0.6-0.6,1.4-0.8,2.4-0.8c1,0,1.7,0.3,2.3,0.8c0.6,0.6,0.9,1.3,0.9,2.3
			c0,1-0.3,1.8-0.9,2.3c-0.6,0.5-1.3,0.8-2.3,0.8c-1,0-1.7-0.3-2.3-0.8C260.1,21.2,259.8,20.5,259.8,19.5z M265.9,50.4H260V25.9h5.8
			V50.4z"/>
	</g>
</g>
</svg>
