<?xml version="1.0" encoding="utf-8"?>
<!-- Generator: Adobe Illustrator 18.0.0, SVG Export Plug-In . SVG Version: 6.00 Build 0)  -->
<!DOCTYPE svg PUBLIC "-//W3C//DTD SVG 1.0//EN" "http://www.w3.org/TR/2001/REC-SVG-20010904/DTD/svg10.dtd">
<svg version="1.0" id="Warstwa_1" xmlns="http://www.w3.org/2000/svg" xmlns:xlink="http://www.w3.org/1999/xlink" x="0px" y="0px"
	 viewBox="0 0 207.2 152.7" enable-background="new 0 0 207.2 152.7" xml:space="preserve">
<path fill="#FF9100" d="M0.6,76.6c0-3.4,1.2-6.3,3.7-8.7l18.1-17.4c2.5-2.4,5.5-3.6,9.1-3.6c3.6,0,6.6,1.2,9.1,3.6l39.2,37.8
	L167.2,4c2.5-2.4,5.5-3.6,9.1-3.6c3.6,0,6.6,1.2,9.1,3.6l18.1,17.4c2.5,2.4,3.7,5.3,3.7,8.7s-1.2,6.3-3.7,8.7L107,131.7l-18.1,17.4
	c-2.5,2.4-5.5,3.6-9.1,3.6c-3.6,0-6.6-1.2-9.1-3.6l-18.1-17.4L4.3,85.3C1.8,82.9,0.6,80,0.6,76.6z"/>
</svg>
