<?xml version="1.0" encoding="utf-8"?>
<!-- Generator: Adobe Illustrator 18.0.0, SVG Export Plug-In . SVG Version: 6.00 Build 0)  -->
<!DOCTYPE svg PUBLIC "-//W3C//DTD SVG 1.0//EN" "http://www.w3.org/TR/2001/REC-SVG-20010904/DTD/svg10.dtd">
<svg version="1.0" id="Warstwa_1" xmlns="http://www.w3.org/2000/svg" xmlns:xlink="http://www.w3.org/1999/xlink" x="0px" y="0px"
	 viewBox="0 0 179.6 105.1" enable-background="new 0 0 179.6 105.1" xml:space="preserve">
<path fill="#F28E13" d="M175.2,87.6h-8.8c0,4.8-1.7,9-5.1,12.4s-7.6,5.1-12.4,5.1c-4.8,0-9-1.7-12.4-5.1c-3.4-3.4-5.1-7.6-5.1-12.4
	H52.6c0,4.8-1.7,9-5.1,12.4c-3.4,3.4-7.6,5.1-12.4,5.1c-4.8,0-9-1.7-12.4-5.1c-3.4-3.4-5.1-7.6-5.1-12.4H4.4c-1.2,0-2.2-0.4-3.1-1.3
	C0.4,85.4,0,84.4,0,83.2L0,4.4c0-1.2,0.4-2.2,1.3-3.1C2.2,0.4,3.2,0,4.4,0l131.4,0c1.2,0,2.2,0.4,3.1,1.3c0.9,0.9,1.3,1.9,1.3,3.1
	v21.9h11c1.2,0,2.5,0.3,4,0.9c1.5,0.6,2.6,1.3,3.5,2.2l13.6,13.6c0.9,0.9,1.6,2,2.2,3.5c0.6,1.5,0.9,2.8,0.9,4v28.5
	c1.2,0,2.2,0.4,3.1,1.3c0.9,0.9,1.3,1.9,1.3,3.1c0,1.2-0.4,2.2-1.3,3.1C177.4,87.2,176.4,87.6,175.2,87.6z M166.5,50.5
	c-0.1-0.5-0.3-1-0.6-1.5l-13.3-13.3c-0.4-0.3-0.9-0.5-1.5-0.6h-10.8v17.5h26.3V50.5z M148.9,78.9c-2.4,0-4.5,0.9-6.2,2.6
	c-1.7,1.7-2.6,3.8-2.6,6.2c0,2.4,0.9,4.5,2.6,6.2s3.8,2.6,6.2,2.6c2.4,0,4.5-0.9,6.2-2.6c1.7-1.7,2.6-3.8,2.6-6.2
	c0-2.4-0.9-4.5-2.6-6.2C153.4,79.7,151.4,78.9,148.9,78.9z M35,78.9c-2.4,0-4.5,0.9-6.2,2.6c-1.7,1.7-2.6,3.8-2.6,6.2
	c0,2.4,0.9,4.5,2.6,6.2s3.8,2.6,6.2,2.6c2.4,0,4.5-0.9,6.2-2.6c1.7-1.7,2.6-3.8,2.6-6.2c0-2.4-0.9-4.5-2.6-6.2
	C39.5,79.7,37.5,78.9,35,78.9z"/>
</svg>
