<?xml version="1.0" encoding="iso-8859-1"?>
<!-- Generator: Adobe Illustrator 18.0.0, SVG Export Plug-In . SVG Version: 6.00 Build 0)  -->
<!DOCTYPE svg PUBLIC "-//W3C//DTD SVG 1.1//EN" "http://www.w3.org/Graphics/SVG/1.1/DTD/svg11.dtd">
<svg version="1.1" id="Capa_1" xmlns="http://www.w3.org/2000/svg" xmlns:xlink="http://www.w3.org/1999/xlink" x="0px" y="0px"
	 viewBox="0 0 85.733 85.686" style="enable-background:new 0 0 85.733 85.686;" xml:space="preserve">
<g>
	<path fill="#F29223" d="M82.311,26.156C77.791,15.618,70.11,7.954,59.484,3.422C54.173,1.157,48.656,0,42.843,0c-5.812,0-11.335,1.146-16.64,3.422
		c-10.538,4.52-18.3,12.179-22.828,22.734C1.106,31.444,0,36.984,0,42.796c0,5.813,1.106,11.399,3.375,16.688
		c4.528,10.555,12.29,18.26,22.828,22.781c5.306,2.276,10.828,3.421,16.64,3.421c5.812,0,11.33-1.157,16.64-3.421
		c10.626-4.532,18.307-12.244,22.828-22.781c2.276-5.306,3.422-10.875,3.422-16.688C85.733,36.984,84.588,31.462,82.311,26.156z
		 M77.53,57.468c-1.989,4.632-4.629,8.684-8.016,12.047c-3.363,3.34-7.406,6-12.047,8.015c-4.641,2.016-9.516,3-14.625,3
		c-6.797,0-13.078-1.687-18.844-5.062c-5.766-3.375-10.369-7.963-13.734-13.734C6.88,55.927,5.203,49.593,5.203,42.796
		s1.687-13.078,5.062-18.843C13.64,18.187,18.234,13.594,24,10.219c5.766-3.375,12.047-5.063,18.844-5.063
		c5.109,0,9.984,0.984,14.625,3c4.641,2.016,8.66,4.699,12.047,8.062c3.363,3.34,6.027,7.368,8.016,12c1.996,4.649,3,9.469,3,14.578
		C80.53,47.906,79.526,52.819,77.53,57.468z"/>
	<path fill="#F29223" d="M64.03,32.437L43.124,53.249L21.703,32.343c-1.022-0.998-2.672-0.984-3.75,0.094c-0.938,0.938-0.93,2.659,0.094,3.656
		L41.39,58.827c0.95,0.925,2.648,1.013,3.656,0l22.64-22.734c0.515-0.516,0.75-1.125,0.75-1.828c0-0.797-0.234-1.406-0.75-1.828
		C66.749,31.359,65.111,31.361,64.03,32.437z"/>
</g>
</svg>
