<?xml version="1.0" encoding="utf-8"?>
<!-- Generator: Adobe Illustrator 18.0.0, SVG Export Plug-In . SVG Version: 6.00 Build 0)  -->
<!DOCTYPE svg PUBLIC "-//W3C//DTD SVG 1.0//EN" "http://www.w3.org/TR/2001/REC-SVG-20010904/DTD/svg10.dtd">
<svg version="1.0" id="Layer_1" xmlns="http://www.w3.org/2000/svg" xmlns:xlink="http://www.w3.org/1999/xlink" x="0px" y="0px"
	 viewBox="0 0 48 48" enable-background="new 0 0 48 48" xml:space="preserve">
<g>
	<path fill="#FFFFFF" d="M24.1,0.2c3.3,0,6.4,0.6,9.3,1.9c2.9,1.3,5.4,3,7.6,5.1c2.2,2.2,3.9,4.7,5.1,7.6c1.3,2.9,1.9,6,1.9,9.3
		s-0.6,6.4-1.9,9.3c-1.3,2.9-3,5.4-5.1,7.6c-2.2,2.2-4.7,3.9-7.6,5.1c-2.9,1.3-6,1.9-9.3,1.9c-3.3,0-6.4-0.6-9.3-1.9
		c-2.9-1.3-5.4-3-7.6-5.1c-2.2-2.2-3.9-4.7-5.1-7.6c-1.3-2.9-1.9-6-1.9-9.3s0.6-6.4,1.9-9.3c1.3-2.9,3-5.4,5.1-7.6
		c2.2-2.2,4.7-3.9,7.6-5.1C17.7,0.8,20.8,0.2,24.1,0.2z M29.8,12.6h-3.6c-1.5,0-2.8,0.5-3.7,1.7c-1,1.1-1.4,2.5-1.4,4.1v2.2h-3.8
		v3.7H21v11h4.3v-11h4.5v-3.7h-4.5v-2.6c0-0.4,0.1-0.7,0.3-1c0.2-0.3,0.4-0.4,0.6-0.4h3.6V12.6z"/>
</g>
</svg>
