<?xml version="1.0" encoding="utf-8"?>
<!-- Generator: Adobe Illustrator 18.0.0, SVG Export Plug-In . SVG Version: 6.00 Build 0)  -->
<!DOCTYPE svg PUBLIC "-//W3C//DTD SVG 1.0//EN" "http://www.w3.org/TR/2001/REC-SVG-20010904/DTD/svg10.dtd">
<svg version="1.0" id="Layer_1" xmlns="http://www.w3.org/2000/svg" xmlns:xlink="http://www.w3.org/1999/xlink" x="0px" y="0px"
	 viewBox="0 0 102.1 120.8" enable-background="new 0 0 102.1 120.8" xml:space="preserve">
<path fill="#FF9100" d="M67,32.5C67,32.5,67,32.5,67,32.5c9.5,0,20.6-8.4,33.1-25l2-2.6L99,3.6C98.6,3.5,89.5,0,79.4,0
	C64.3,0,55.2,8.1,53.7,22.8c-1.6,1.6-2.9,3.1-4,4.4c-1.4-6-4.6-13-10.9-20.2l-5.3,4.6c10.5,12,10.8,22.8,9.8,28.5
	c-3.6-0.9-8.8-1.8-14.4-1.8C16.7,38.2,8,42.9,3.8,51.7c-9.6,19.9-0.2,48.8,21.5,65.9c2.7,2.1,5.7,3.2,8.9,3.2c4.8,0,9-2.5,11.7-4.6
	c2.7,2.1,6.9,4.6,11.7,4.6c0,0,0,0,0,0c3.2,0,6.2-1.1,8.9-3.2c21.7-17,31.1-45.9,21.5-65.9c-4.3-8.8-13-13.5-25.2-13.5
	c-4.7,0-9.1,0.7-12.5,1.4c0.3-2.4,0.3-5.3-0.1-8.5c1-1.4,2.5-3.2,4.3-5.2C56.3,28.2,60.2,32.5,67,32.5z M79.4,5
	c2.8,0,5.6,0.3,8.1,0.8c-12,1.9-21.1,6.6-27.8,11.7C62.5,9.1,68.9,5,79.4,5z M58.8,22.1c7.2-6.2,18.4-12.7,34.5-14
	C80.5,24,72,27.5,67,27.5c0,0,0,0,0,0c-4.8,0-7.4-3.2-8.3-4.6C58.7,22.6,58.7,22.3,58.8,22.1z"/>
</svg>
