<?xml version="1.0" encoding="utf-8"?>
<!-- Generator: Adobe Illustrator 18.0.0, SVG Export Plug-In . SVG Version: 6.00 Build 0)  -->
<!DOCTYPE svg PUBLIC "-//W3C//DTD SVG 1.0//EN" "http://www.w3.org/TR/2001/REC-SVG-20010904/DTD/svg10.dtd">
<svg version="1.0" id="Layer_1" xmlns="http://www.w3.org/2000/svg" xmlns:xlink="http://www.w3.org/1999/xlink" x="0px" y="0px"
	 viewBox="0 0 23.9 24.1" enable-background="new 0 0 23.9 24.1" xml:space="preserve">
<g>
	<g>
		<g>
			<path fill-rule="evenodd" clip-rule="evenodd" fill="#F29100" d="M11.7,12.1L11.7,12.1c-0.1,0.3-0.3,2-0.5,2.3
				c-0.1,0.3-0.7,1.1-1,1.9c0,0.1,0,0.1,0,0.2c0,0.1,0.1,0.3,0.1,0.4c0.1,0.3,0.1,0.6,0.2,0.9c0.1,0,0.2,0.1,0.3,0.1
				c1.7,0.3,0.7-2.8,0.7-3.4C11.4,14.1,11.7,12.5,11.7,12.1L11.7,12.1z"/>
			<path fill-rule="evenodd" clip-rule="evenodd" fill="#F29100" d="M13.1,10.3L13.1,10.3c-0.1,0.3-0.3,2-0.5,2.3
				c-0.1,0.3-0.7,1.1-1,1.9c0,0.1,0,0.1,0,0.2c0,0.1,0.1,0.3,0.1,0.4c0.1,0.3,0.1,0.6,0.2,0.9c0.1,0,0.2,0.1,0.3,0.1
				c1.7,0.3,0.7-2.8,0.7-3.4C12.7,12.3,13,10.6,13.1,10.3L13.1,10.3z"/>
			<path fill-rule="evenodd" clip-rule="evenodd" fill="#F29100" d="M14.4,8.5L14.4,8.5c-0.1,0.3-0.3,2-0.5,2.3
				c-0.1,0.3-0.7,1.1-1,1.9c0,0.1,0,0.1,0,0.2c0,0.1,0.1,0.3,0.1,0.4c0.1,0.3,0.1,0.6,0.2,0.9c0.1,0,0.2,0.1,0.3,0.1
				c1.7,0.3,0.7-2.8,0.7-3.4C14.1,10.5,14.4,8.8,14.4,8.5L14.4,8.5z"/>
			<path fill-rule="evenodd" clip-rule="evenodd" fill="#F29100" d="M15.8,6.7L15.8,6.7c-0.1,0.3-0.3,2-0.5,2.3
				c-0.1,0.3-0.7,1.1-1,1.9c0,0.1,0,0.1,0,0.2c0,0.1,0.1,0.3,0.1,0.4c0.1,0.3,0.1,0.6,0.2,0.9c0.1,0,0.2,0.1,0.3,0.1
				c1.7,0.3,0.7-2.8,0.7-3.4C15.5,8.7,15.8,7,15.8,6.7L15.8,6.7z"/>
			<path fill-rule="evenodd" clip-rule="evenodd" fill="#F29100" d="M17.2,4.9L17.2,4.9c-0.1,0.3-0.3,2-0.5,2.3
				c-0.1,0.3-0.7,1.1-1,1.9c0,0.1,0,0.1,0,0.2c0,0.1,0.1,0.3,0.1,0.4c0.1,0.3,0.1,0.6,0.2,0.9c0.1,0,0.2,0.1,0.3,0.1
				c1.7,0.3,0.7-2.8,0.7-3.4C16.9,6.9,17.2,5.2,17.2,4.9L17.2,4.9z"/>
			<path fill-rule="evenodd" clip-rule="evenodd" fill="#F29100" d="M18.6,3.1L18.6,3.1c-0.1,0.3-0.3,2-0.5,2.3
				c-0.1,0.3-0.7,1.1-1,1.9c0,0.1,0,0.1,0,0.2c0,0.1,0.1,0.3,0.1,0.4c0.1,0.3,0.1,0.6,0.2,0.9c0.1,0,0.2,0.1,0.3,0.1
				c1.7,0.3,0.7-2.8,0.7-3.4C18.2,5.1,18.5,3.4,18.6,3.1L18.6,3.1z"/>
			<path fill-rule="evenodd" clip-rule="evenodd" fill="#F29100" d="M23.1,2.8L23.1,2.8c-0.2,0.3-1.3,1.7-1.5,2.1
				c-0.2,0.6-0.9,4.2-2.4,2.9c-1.4-1.2,1.6-2.6,2.2-3C21.7,4.5,22.8,3.1,23.1,2.8L23.1,2.8z"/>
			<path fill-rule="evenodd" clip-rule="evenodd" fill="#F29100" d="M19.4,8.1L19.4,8.1l-0.3,0.3c-0.3,0.1-0.5,0.3-0.6,0.5
				c-0.1,0.1-0.1,0.3-0.1,0.4l-0.7,0.9c-0.3,0.1-0.5,0.3-0.6,0.5C17,10.8,17,11,17,11.1L16.4,12c-0.3,0.1-0.5,0.3-0.6,0.5
				c-0.1,0.1-0.1,0.3-0.1,0.4L15,13.8c-0.3,0.1-0.5,0.3-0.6,0.5c-0.1,0.1-0.1,0.3-0.1,0.4l-0.7,0.9c-0.3,0.1-0.5,0.3-0.6,0.5
				c-0.1,0.1-0.1,0.3-0.1,0.4l-0.7,0.9c-0.3,0.1-0.5,0.3-0.6,0.5c-0.1,0.1-0.1,0.3-0.1,0.4l-0.7,0.9c-0.3,0.1-0.5,0.3-0.6,0.5
				c-0.1,0.1-0.1,0.3-0.1,0.4l-3.1,4l-0.4-0.3l3-4c0.1,0,0.3-0.1,0.4-0.2c0.2-0.2,0.3-0.5,0.3-0.8l0.6-0.8c0.1,0,0.3-0.1,0.4-0.2
				c0.2-0.2,0.3-0.5,0.3-0.8l0.6-0.8c0.1,0,0.3-0.1,0.4-0.2c0.2-0.2,0.3-0.5,0.3-0.8l0.6-0.8c0.1,0,0.3-0.1,0.4-0.2
				c0.2-0.2,0.3-0.5,0.3-0.8l0.6-0.8c0.1,0,0.3-0.1,0.4-0.2c0.2-0.2,0.3-0.5,0.3-0.8l0.6-0.8c0.1,0,0.3-0.1,0.4-0.2
				c0.2-0.2,0.3-0.5,0.3-0.8L18,9c0.1,0,0.3-0.1,0.4-0.2c0.2-0.2,0.3-0.5,0.3-0.8L19,7.7c0.1,0.1,0.1,0.1,0.2,0.2
				C19.2,8,19.3,8,19.4,8.1L19.4,8.1z"/>
			<path fill-rule="evenodd" clip-rule="evenodd" fill="#F29100" d="M17,16.3L17,16.3c-0.3,0.2-1.8,0.8-2.1,1
				c-0.2,0.2-0.9,1-1.6,1.5c-0.1,0-0.1,0-0.2,0c-0.1,0-0.3,0-0.4,0c-0.3,0-0.6,0-0.9,0.1c-0.1-0.1-0.1-0.1-0.1-0.2
				c-0.7-1.6,2.5-1.4,3.1-1.5C15.2,17.1,16.7,16.4,17,16.3L17,16.3z"/>
			<path fill-rule="evenodd" clip-rule="evenodd" fill="#F29100" d="M18.4,14.5L18.4,14.5c-0.3,0.2-1.8,0.8-2.1,1
				c-0.2,0.2-0.9,1-1.6,1.5c-0.1,0-0.1,0-0.2,0c-0.1,0-0.3,0-0.4,0c-0.3,0-0.6,0-0.9,0.1c-0.1-0.1-0.1-0.1-0.1-0.2
				c-0.7-1.6,2.5-1.4,3.1-1.5C16.6,15.3,18.1,14.6,18.4,14.5L18.4,14.5z"/>
			<path fill-rule="evenodd" clip-rule="evenodd" fill="#F29100" d="M19.8,12.7L19.8,12.7c-0.3,0.2-1.8,0.8-2.1,1
				c-0.2,0.2-0.9,1-1.6,1.5c-0.1,0-0.1,0-0.2,0c-0.1,0-0.3,0-0.4,0c-0.3,0-0.6,0-0.9,0.1c-0.1-0.1-0.1-0.1-0.1-0.2
				c-0.7-1.6,2.5-1.4,3.1-1.5C17.9,13.5,19.5,12.8,19.8,12.7L19.8,12.7z"/>
			<path fill-rule="evenodd" clip-rule="evenodd" fill="#F29100" d="M21.2,10.9L21.2,10.9c-0.3,0.2-1.8,0.8-2.1,1
				c-0.2,0.2-0.9,1-1.6,1.5c-0.1,0-0.1,0-0.2,0c-0.1,0-0.3,0-0.4,0c-0.3,0-0.6,0-0.9,0.1c-0.1-0.1-0.1-0.1-0.1-0.2
				c-0.7-1.6,2.5-1.4,3.1-1.5C19.3,11.7,20.8,11,21.2,10.9L21.2,10.9z"/>
			<path fill-rule="evenodd" clip-rule="evenodd" fill="#F29100" d="M22.5,9.1L22.5,9.1c-0.3,0.2-1.8,0.8-2.1,1
				c-0.2,0.2-0.9,1-1.6,1.5c-0.1,0-0.1,0-0.2,0c-0.1,0-0.3,0-0.4,0c-0.3,0-0.6,0-0.9,0.1c-0.1-0.1-0.1-0.1-0.1-0.2
				c-0.7-1.6,2.5-1.4,3.1-1.5C20.7,9.9,22.2,9.2,22.5,9.1L22.5,9.1z"/>
			<path fill-rule="evenodd" clip-rule="evenodd" fill="#F29100" d="M23.9,7.3L23.9,7.3c-0.3,0.2-1.8,0.8-2.1,1
				c-0.2,0.2-0.9,1-1.6,1.5c-0.1,0-0.1,0-0.2,0c-0.1,0-0.3,0-0.4,0c-0.3,0-0.6,0-0.9,0.1c-0.1-0.1-0.1-0.1-0.1-0.2
				c-0.7-1.6,2.5-1.4,3.1-1.5C22.1,8.1,23.6,7.4,23.9,7.3L23.9,7.3z"/>
			<path fill-rule="evenodd" clip-rule="evenodd" fill="#F29100" d="M15.7,18.1L15.7,18.1c-0.3,0.2-1.8,0.8-2.1,1
				c-0.4,0.4-2.5,3-3.2,1.4c-0.7-1.6,2.5-1.4,3.1-1.5C13.8,18.9,15.3,18.2,15.7,18.1L15.7,18.1z"/>
			<path fill-rule="evenodd" clip-rule="evenodd" fill="#F29100" d="M10.3,13.9c-0.1,0.3-0.3,2-0.5,2.3c-0.2,0.5-2.2,3.2-0.5,3.5
				c1.7,0.3,0.7-2.8,0.7-3.4C10,15.9,10.3,14.3,10.3,13.9L10.3,13.9z"/>
			<path fill-rule="evenodd" clip-rule="evenodd" fill="#F29100" d="M14.4,8.5L14.4,8.5c-0.1,0.3-0.3,2-0.5,2.3l0,0l-0.3,3.5
				c1.4,0,0.5-2.8,0.5-3.4C14.1,10.5,14.4,8.8,14.4,8.5L14.4,8.5z"/>
			<path fill-rule="evenodd" clip-rule="evenodd" fill="#F29100" d="M15.8,6.7L15.8,6.7c-0.1,0.3-0.3,2-0.5,2.3
				c-0.1,0.3-0.7,1.1-1,1.9c0,0.1,0,0.1,0,0.2c0,0.1,0.1,0.3,0.1,0.4c0.1,0.3,0.1,0.6,0.2,0.9c0.1,0,0.2,0.1,0.3,0.1
				c1.7,0.3,0.7-2.8,0.7-3.4C15.5,8.7,15.8,7,15.8,6.7L15.8,6.7z"/>
			<path fill-rule="evenodd" clip-rule="evenodd" fill="#F29100" d="M17.2,4.9L17.2,4.9c-0.1,0.3-0.3,2-0.5,2.3
				c-0.1,0.3-0.7,1.1-1,1.9c0,0.1,0,0.1,0,0.2c0,0.1,0.1,0.3,0.1,0.4c0.1,0.3,0.1,0.6,0.2,0.9c0.1,0,0.2,0.1,0.3,0.1
				c1.7,0.3,0.7-2.8,0.7-3.4C16.9,6.9,17.2,5.2,17.2,4.9L17.2,4.9z"/>
			<path fill-rule="evenodd" clip-rule="evenodd" fill="#F29100" d="M18.6,3.1L18.6,3.1c-0.1,0.3-0.3,2-0.5,2.3
				c-0.1,0.3-0.7,1.1-1,1.9c0,0.1,0,0.1,0,0.2c0,0.1,0.1,0.3,0.1,0.4c0.1,0.3,0.1,0.6,0.2,0.9c0.1,0,0.2,0.1,0.3,0.1
				c1.7,0.3,0.7-2.8,0.7-3.4C18.2,5.1,18.5,3.4,18.6,3.1L18.6,3.1z"/>
			<path fill-rule="evenodd" clip-rule="evenodd" fill="#F29100" d="M23.1,2.8L23.1,2.8c-0.2,0.3-1.3,1.7-1.5,2.1
				c-0.2,0.6-0.9,4.2-2.4,2.9c-1.4-1.2,1.6-2.6,2.2-3C21.7,4.5,22.8,3.1,23.1,2.8L23.1,2.8z"/>
			<path fill-rule="evenodd" clip-rule="evenodd" fill="#F29100" d="M19.4,8.1L19.4,8.1l-0.3,0.3c-0.3,0.1-0.5,0.3-0.6,0.5
				c-0.1,0.1-0.1,0.3-0.1,0.4l-0.7,0.9c-0.3,0.1-0.5,0.3-0.6,0.5C17,10.8,17,11,17,11.1L16.4,12c-0.3,0.1-0.5,0.3-0.6,0.5
				c-0.1,0.1-0.1,0.3-0.1,0.4L15,13.8c-0.3,0.1-0.5,0.3-0.6,0.5c-0.1,0.1-0.1,0.3-0.1,0.4l-0.7,0.9l0,0l0.1-0.9l0.2-0.3
				c0.1,0,0.3-0.1,0.4-0.2c0.2-0.2,0.3-0.5,0.3-0.8l0.6-0.8c0.1,0,0.3-0.1,0.4-0.2c0.2-0.2,0.3-0.5,0.3-0.8l0.6-0.8
				c0.1,0,0.3-0.1,0.4-0.2c0.2-0.2,0.3-0.5,0.3-0.8L18,9c0.1,0,0.3-0.1,0.4-0.2c0.2-0.2,0.3-0.5,0.3-0.8L19,7.7
				c0.1,0.1,0.1,0.1,0.2,0.2C19.2,8,19.3,8,19.4,8.1L19.4,8.1z"/>
			<path fill-rule="evenodd" clip-rule="evenodd" fill="#F29100" d="M17,16.3L17,16.3c-0.3,0.2-1.8,0.8-2.1,1
				c-0.2,0.2-0.9,1-1.6,1.5l-0.1,0l0.1-1.6c0.6-0.1,1.2-0.1,1.4-0.1C15.2,17.1,16.7,16.4,17,16.3L17,16.3z"/>
			<path fill-rule="evenodd" clip-rule="evenodd" fill="#F29100" d="M18.4,14.5L18.4,14.5c-0.3,0.2-1.8,0.8-2.1,1
				c-0.2,0.2-0.9,1-1.6,1.5c-0.1,0-0.1,0-0.2,0c-0.1,0-0.3,0-0.4,0c-0.3,0-0.5,0-0.8,0.1l0.1-1.3c0.8-0.4,2.3-0.4,2.7-0.4
				C16.6,15.3,18.1,14.6,18.4,14.5L18.4,14.5z"/>
			<path fill-rule="evenodd" clip-rule="evenodd" fill="#F29100" d="M19.8,12.7L19.8,12.7c-0.3,0.2-1.8,0.8-2.1,1
				c-0.2,0.2-0.9,1-1.6,1.5c-0.1,0-0.1,0-0.2,0c-0.1,0-0.3,0-0.4,0c-0.3,0-0.6,0-0.9,0.1c-0.1-0.1-0.1-0.1-0.1-0.2
				c-0.7-1.6,2.5-1.4,3.1-1.5C17.9,13.5,19.5,12.8,19.8,12.7L19.8,12.7z"/>
			<path fill-rule="evenodd" clip-rule="evenodd" fill="#F29100" d="M21.2,10.9L21.2,10.9c-0.3,0.2-1.8,0.8-2.1,1
				c-0.2,0.2-0.9,1-1.6,1.5c-0.1,0-0.1,0-0.2,0c-0.1,0-0.3,0-0.4,0c-0.3,0-0.6,0-0.9,0.1c-0.1-0.1-0.1-0.1-0.1-0.2
				c-0.7-1.6,2.5-1.4,3.1-1.5C19.3,11.7,20.8,11,21.2,10.9L21.2,10.9z"/>
			<path fill-rule="evenodd" clip-rule="evenodd" fill="#F29100" d="M22.5,9.1L22.5,9.1c-0.3,0.2-1.8,0.8-2.1,1
				c-0.2,0.2-0.9,1-1.6,1.5c-0.1,0-0.1,0-0.2,0c-0.1,0-0.3,0-0.4,0c-0.3,0-0.6,0-0.9,0.1c-0.1-0.1-0.1-0.1-0.1-0.2
				c-0.7-1.6,2.5-1.4,3.1-1.5C20.7,9.9,22.2,9.2,22.5,9.1L22.5,9.1z"/>
			<path fill-rule="evenodd" clip-rule="evenodd" fill="#F29100" d="M23.9,7.3L23.9,7.3c-0.3,0.2-1.8,0.8-2.1,1
				c-0.2,0.2-0.9,1-1.6,1.5c-0.1,0-0.1,0-0.2,0c-0.1,0-0.3,0-0.4,0c-0.3,0-0.6,0-0.9,0.1c-0.1-0.1-0.1-0.1-0.1-0.2
				c-0.7-1.6,2.5-1.4,3.1-1.5C22.1,8.1,23.6,7.4,23.9,7.3L23.9,7.3z"/>
			<path fill-rule="evenodd" clip-rule="evenodd" fill="#F29100" d="M15.7,18.1L15.7,18.1c-0.3,0.2-1.8,0.8-2.1,1
				c-0.1,0.1-0.2,0.2-0.3,0.3l0-0.5c0.1,0,0.2,0,0.2,0C13.8,18.9,15.3,18.2,15.7,18.1L15.7,18.1z"/>
		</g>
		<g>
			<g>
				<g>
					<g>
						<path fill="#F29100" d="M3,0C2.8,0,2.8,0.3,2.6,0.3c-0.2,0-0.3-0.2-0.5-0.2C1.9,0.1,2,0.4,1.8,0.4C1.6,0.5,1.1-0.1,1,0.7
							C1,1.1,0.7,0.4,0.5,0.6C0.3,0.7,0.7,1,0.5,1.1C0.3,1.2,0.1,0.9,0,1.1c-0.1,0.2,0.2,0.7,0.5,1.1C0.7,2.4,0.9,2.6,1,2.7
							c0,0,0,0,0,0C1.4,3,2,3.1,2.1,3.3c0.3,0.4-0.4,0.8-0.6,1c0,0,0,0-0.1,0.1C1.3,4.7,1,5.1,0.8,5.5C0.7,5.8,0.6,6.1,0.7,6.2
							c0.2,0.3,0.2-0.1,0.4-0.1c0.2,0,0.2,0.4,0.4,0.5c0.1,0,0.3-0.1,0.4-0.2c0,0.1,0.1,0.4,0.2,0.4c0.2,0,0.1-0.2,0.3-0.2
							c0.2,0,0.1,0.1,0.3,0.2C3,6.9,2.9,6.6,3.2,6.3c0.1,0.1,0.2,0.4,0.4,0.4c0.4,0,0-0.7,0.5-0.4c0.1,0.1,0.2,0.3,0.4,0.1
							c0.1-0.1,0-0.3,0-0.3C4.5,6,4.6,6.1,4.8,6.1C5,6.1,4.9,5.7,5,5.6c0.2-0.2,0.3,0.1,0.5,0c0.4-0.2,0-0.8-0.3-1.1
							C5.1,4.5,5.1,4.4,5,4.4C4.9,4.3,4.7,4.2,4.4,4.1C4,3.9,3.6,3.6,3.5,3.3C3.5,3,4.1,2.5,4.3,2.2c0,0,0,0,0,0
							C4.5,2,4.6,1.9,4.7,1.7C4.8,1.5,4.9,1.4,5,1.2c0,0,0,0,0,0c0,0,0,0,0,0C5,1.1,5,1,5,1c0-0.1,0-0.1,0-0.2
							c-0.2-1-0.3-0.2-0.7-0.3c0,0,0,0-0.1,0C4.1,0.4,4,0.1,3.8,0.1c-0.1,0-0.2,0.1-0.4,0.1C3.3,0.2,3.2,0,3,0z M3.2,1.6
							C3.2,2,3,2.4,3,2.8c0,0.5,0,1,0.3,1.4c0.4,0.5,0.4,1.6-0.6,1.4c-0.7-0.2-0.1-1,0-1.4C3,3.3,2.2,2.7,2,2C1.8,1.1,3,0.9,3.2,1.6
							z"/>
					</g>
				</g>
				<g>
					<path fill="#F29100" d="M2.8,3.6c0.1,0.3,0,0.5,0,0.8c0,0.1,0.1,0.5,0.2,0.4C3.2,4.3,2.9,4,2.8,3.6c0-0.2,0.1-1.2-0.1-1.3
						C2.3,2.2,2.8,3.5,2.8,3.6z"/>
				</g>
			</g>
			<g>
				<g>
					<g>
						<path fill="#F29100" d="M14.4,3.2C14.3,3.1,14,3.2,13.9,3c-0.1-0.2,0.1-0.4,0-0.6c-0.1-0.2-0.4,0-0.5-0.2
							c-0.1-0.1,0.2-0.8-0.6-0.6c-0.4,0.1,0.1-0.5-0.2-0.6c-0.2-0.1-0.3,0.4-0.5,0.3c-0.2-0.1,0.1-0.5-0.1-0.5c-0.3,0-0.6,0.5-0.8,1
							c-0.1,0.2-0.2,0.5-0.2,0.7c0,0,0,0,0,0c-0.1,0.5,0.1,1.1-0.1,1.3c-0.3,0.5-1,0.1-1.3-0.1c0,0-0.1,0-0.1,0
							c-0.3-0.1-0.9-0.1-1.3,0C7.7,3.9,7.4,4,7.4,4.1C7.2,4.4,7.6,4.2,7.7,4.4C7.8,4.6,7.3,4.8,7.4,5c0,0.1,0.3,0.2,0.4,0.3
							C7.7,5.4,7.5,5.5,7.5,5.7c0.1,0.1,0.3,0,0.4,0.1c0.1,0.2,0,0.2,0,0.4c0,0.5,0.3,0.2,0.6,0.3c0,0.2-0.3,0.4-0.2,0.5
							C8.5,7.4,9,6.6,8.9,7.3c0,0.2-0.2,0.3,0.1,0.4c0.1,0,0.2-0.2,0.3-0.1c0.1,0.1,0,0.3,0.1,0.4c0.1,0.2,0.4-0.1,0.6,0
							c0.2,0.1,0.1,0.4,0.2,0.5C10.7,8.7,11,8,11.2,7.5c0-0.1,0.1-0.2,0.1-0.2c0-0.2,0-0.4,0-0.7c0-0.5,0-1,0.2-1.2
							c0.3-0.2,1.1,0.1,1.4,0.2c0,0,0,0,0.1,0c0.2,0.1,0.4,0.1,0.6,0.1c0.2,0,0.4,0,0.6,0c0,0,0,0,0,0c0,0,0,0,0,0
							c0.1,0,0.1,0,0.2-0.1c0.1,0,0.1-0.1,0.2-0.1c0.9-0.7,0-0.4-0.1-0.8c0,0,0,0,0-0.1c0-0.2,0.2-0.4,0.2-0.6
							c-0.1-0.1-0.2-0.2-0.3-0.3C14.3,3.6,14.5,3.4,14.4,3.2z M12.9,4.2c-0.3,0.2-0.8,0.2-1.2,0.4c-0.5,0.2-1,0.5-1.2,1
							c-0.3,0.7-1.4,1.2-1.6,0.1C8.8,4.9,9.8,5.1,10.3,5c1-0.1,1.1-1.2,1.8-1.7C12.7,2.7,13.6,3.7,12.9,4.2z"/>
					</g>
				</g>
				<g>
					<path fill="#F29100" d="M11,4.8c-0.2,0.2-0.4,0.2-0.7,0.4C10.1,5.3,9.8,5.6,10,5.6C10.5,5.5,10.6,5.1,11,4.8
						c0.2-0.1,1.2-0.5,1.1-0.8C12,3.6,11,4.7,11,4.8z"/>
				</g>
			</g>
			<g>
				<g>
					<g>
						<path fill="#F29100" d="M7.8,9.2c-0.1-0.1-0.4,0.1-0.6,0C7.1,9.1,7.2,8.8,7.1,8.7c-0.2-0.1-0.4,0.1-0.5,0
							C6.3,8.6,6.4,7.8,5.7,8.4C5.4,8.7,5.7,7.9,5.4,7.9C5.1,7.9,5.3,8.4,5,8.4C4.8,8.3,4.9,7.9,4.7,8C4.4,8.1,4.3,8.7,4.3,9.3
							c0,0.3,0,0.5,0.1,0.7c0,0,0,0,0,0c0.1,0.5,0.5,1,0.4,1.2c-0.1,0.5-0.9,0.4-1.2,0.4c0,0-0.1,0-0.1,0c-0.3,0-0.8,0.2-1.2,0.5
							c-0.3,0.2-0.6,0.3-0.6,0.5c0,0.4,0.3,0.1,0.4,0.2c0.2,0.2-0.2,0.5,0,0.6c0.1,0.1,0.3,0.1,0.4,0.1c-0.1,0.1-0.2,0.4-0.1,0.5
							c0.1,0.1,0.3-0.1,0.4,0c0.2,0.1,0.1,0.2,0.1,0.3c0.2,0.4,0.4,0.1,0.7,0.1c0.1,0.2-0.1,0.4,0,0.6c0.3,0.2,0.5-0.6,0.7,0
							c0.1,0.2-0.1,0.4,0.3,0.3c0.1,0,0.1-0.2,0.3-0.2c0.1,0,0.1,0.2,0.2,0.3c0.2,0.1,0.3-0.2,0.5-0.2c0.3,0,0.2,0.3,0.4,0.4
							c0.5,0.1,0.6-0.6,0.5-1.1c0-0.1,0-0.2,0-0.3c0-0.2-0.1-0.4-0.3-0.7C6,13,5.8,12.5,6,12.2c0.2-0.3,1.1-0.3,1.4-0.4
							c0,0,0,0,0.1,0c0.2,0,0.4-0.1,0.6-0.1c0.2-0.1,0.4-0.1,0.6-0.2c0,0,0,0,0,0c0,0,0,0,0,0c0.1,0,0.1-0.1,0.2-0.2
							c0,0,0.1-0.1,0.1-0.2c0.6-0.9-0.1-0.4-0.4-0.7c0,0,0,0,0,0c-0.1-0.1,0-0.5-0.1-0.6C8.3,9.7,8.1,9.8,8,9.7
							C7.9,9.5,8,9.3,7.8,9.2z M6.8,10.6c-0.2,0.3-0.7,0.5-0.9,0.8c-0.4,0.4-0.7,0.9-0.7,1.4c0,0.7-0.8,1.6-1.5,0.7
							c-0.5-0.6,0.6-0.9,1-1.1c0.8-0.5,0.6-1.5,1-2.3C6.1,9.3,7.3,9.9,6.8,10.6z"/>
					</g>
				</g>
				<g>
					<path fill="#F29100" d="M5.2,12c-0.2,0.3-0.3,0.4-0.5,0.7c-0.1,0.1-0.3,0.5-0.1,0.5C5.1,12.8,5,12.4,5.2,12
						C5.4,11.8,6.1,11,6,10.8C5.8,10.4,5.3,11.9,5.2,12z"/>
				</g>
			</g>
		</g>
	</g>
</g>
</svg>
