<?xml version="1.0" encoding="utf-8"?>
<!-- Generator: Adobe Illustrator 18.0.0, SVG Export Plug-In . SVG Version: 6.00 Build 0)  -->
<!DOCTYPE svg PUBLIC "-//W3C//DTD SVG 1.0//EN" "http://www.w3.org/TR/2001/REC-SVG-20010904/DTD/svg10.dtd">
<svg version="1.0" id="Layer_1" xmlns="http://www.w3.org/2000/svg" xmlns:xlink="http://www.w3.org/1999/xlink" x="0px" y="0px"
	 viewBox="0 0 73.4 52.3" enable-background="new 0 0 73.4 52.3" xml:space="preserve">
<path fill-rule="evenodd" clip-rule="evenodd" fill="#F29223" d="M73.4,18.9c0-0.1,0-0.2,0-0.2c0-0.1,0-0.2,0-0.3c0-0.1,0-0.1,0-0.2
	c0-0.1-0.1-0.2-0.1-0.3c0-0.1,0-0.1-0.1-0.2c-0.1-0.2-0.2-0.3-0.3-0.5c-1-2-1.9-4-2.9-6l0-6.5l1.1-1.2c0-0.7,0-1.3,0-2L69.7,0
	c-4,0-7.9,0-11.8,0v0C53.9,0,50,0,46.1,0l-1.4,1.5c0,0.7,0,1.3,0,2l1.1,1.2l0,6.5c-1,2-1.9,4-2.9,6c-0.4,0.8-0.5,1.2-0.5,2.1
	c0,7.3,0,14.5,0,21.8c0,1.8,0.2,2.5,1,4.1l3,6h11.4h0.2H58h0h11.4l3-6c0.6-1.2,0.9-1.9,1-2.9c0-0.3,0-0.7,0-1.2c0-0.1,0-0.2,0-0.3
	s0-0.2,0-0.3c0-0.1,0-0.2,0-0.3c0-0.1,0-0.2,0-0.3c0-0.1,0-0.2,0-0.3s0-0.2,0-0.3s0-0.2,0-0.3s0-0.2,0-0.3s0-0.2,0-0.3
	c0-0.1,0-0.2,0-0.3c0-0.1,0-0.2,0-0.3c0-0.1,0-0.2,0-0.3c0-0.1,0-0.2,0-0.3s0-0.2,0-0.3s0-0.2,0-0.3c0-0.1,0-0.2,0-0.3s0-0.2,0-0.3
	s0-0.2,0-0.3c0-0.1,0-0.2,0-0.3c0-0.1,0-0.2,0-0.3c0-0.1,0-0.2,0-0.3c0-0.1,0-0.2,0-0.3c0-0.1,0-0.2,0-0.3s0-0.2,0-0.3s0-0.2,0-0.3
	c0-0.1,0-0.2,0-0.3s0-0.2,0-0.3c0-0.1,0-0.2,0-0.3c0-0.1,0-0.2,0-0.3c0-0.1,0-0.2,0-0.3c0-0.1,0-0.2,0-0.3s0-0.2,0-0.3
	c0-0.1,0-0.2,0-0.3c0-0.1,0-0.2,0-0.3c0-0.1,0-0.2,0-0.3s0-0.2,0-0.3s0-0.2,0-0.3c0-0.1,0-0.2,0-0.3c0-0.1,0-0.2,0-0.3
	c0-0.1,0-0.2,0-0.3c0-0.1,0-0.2,0-0.3s0-0.2,0-0.3c0-0.1,0-0.2,0-0.3c0-0.1,0-0.2,0-0.3s0-0.2,0-0.3s0-0.2,0-0.3c0-0.1,0-0.2,0-0.3
	c0-0.1,0-0.2,0-0.3c0-0.1,0-0.2,0-0.3c0-0.1,0-0.2,0-0.3c0-0.1,0-0.2,0-0.3s0-0.2,0-0.3s0-0.2,0-0.3c0-0.1,0-0.2,0-0.3
	c0-0.1,0-0.2,0-0.3s0-0.2,0-0.3s0-0.2,0-0.3c0-0.1,0-0.2,0-0.3c0-0.1,0-0.2,0-0.3c0-0.1,0-0.2,0-0.3c0-0.1,0-0.2,0-0.3s0-0.2,0-0.3
	s0-0.2,0-0.3c0-0.1,0-0.2,0-0.3v0C73.4,19.1,73.4,19,73.4,18.9z"/>
<path fill-rule="evenodd" clip-rule="evenodd" fill="#F29223" d="M19.6,20.9c-5,0-9,1.5-9,3.4c0,1.9,4,3.4,9,3.4c5,0,9-1.5,9-3.4
	C28.6,22.4,24.6,20.9,19.6,20.9L19.6,20.9L19.6,20.9z M19.6,20.6c-5.4,0-9.8,1.7-9.8,3.9c0,2.1,4.4,3.9,9.8,3.9
	c5.4,0,9.8-1.7,9.8-3.9C29.4,22.3,25,20.6,19.6,20.6L19.6,20.6L19.6,20.6z M0.2,25.1H0l0,0.8C0,25.6,0.1,25.4,0.2,25.1L0.2,25.1z
	 M39.4,25.1l-0.1,0.2c0,0.1,0,0.2,0.1,0.3V25.1L39.4,25.1z M19.9,19.5C11.9,19.5,5.5,22,5.5,25c0,3,6.4,5.5,14.4,5.5
	c7.9,0,14.4-2.4,14.4-5.5C34.2,22,27.8,19.5,19.9,19.5L19.9,19.5L19.9,19.5z M19.9,19c-8.6,0-15.6,2.8-15.6,6.2
	c0,3.4,7,6.2,15.6,6.2c8.6,0,15.6-2.8,15.6-6.2C35.4,21.8,28.5,19,19.9,19L19.9,19L19.9,19z M1.6,28.7c3,2.8,10,4.8,18.2,4.8
	c8.2,0,15.2-2,18.2-4.8c0.1,0,0.1,0,0.2,0L38,29l0.1,10.7c0,4.6,0.4,5.7-4.2,7.7c-3.6,1.6-8.6,2.5-14.1,2.5c-5.5,0-10.5-1-14.1-2.5
	c-4.8-2.1-4.1-3.4-4.1-8.2l0.1-10.5C1.6,28.7,1.6,28.7,1.6,28.7L1.6,28.7z M19.7,17.8C8.8,17.8,0,21.3,0,25.6c0,0.1,0,0.2,0,0.3
	c0,0.1,0,0.2,0,0.3c0,0.1,0,0.3,0,0.4l0.2,15.6H0.1c0,4.9,0.3,5.5,4.7,7.4c3.8,1.7,9.1,2.7,14.9,2.7c5.8,0,11.1-1,14.9-2.7
	c2.7-1.2,4.7-1.9,4.8-7.4l0-15.4c0-0.2,0.1-0.4,0.1-0.7c0-0.1,0-0.2,0-0.3c0-0.1,0-0.2,0-0.2C39.5,21.3,30.6,17.8,19.7,17.8
	L19.7,17.8L19.7,17.8z"/>
</svg>
