<?xml version="1.0" encoding="utf-8"?>
<!-- Generator: Adobe Illustrator 18.0.0, SVG Export Plug-In . SVG Version: 6.00 Build 0)  -->
<!DOCTYPE svg PUBLIC "-//W3C//DTD SVG 1.0//EN" "http://www.w3.org/TR/2001/REC-SVG-20010904/DTD/svg10.dtd">
<svg version="1.0" id="Warstwa_1" xmlns="http://www.w3.org/2000/svg" xmlns:xlink="http://www.w3.org/1999/xlink" x="0px" y="0px"
	 viewBox="0 0 174.5 131.8" enable-background="new 0 0 174.5 131.8" xml:space="preserve">
<path fill="#FF9100" d="M0,17c0-4.9,1.3-8.9,4-12.2C6.7,1.6,10.6,0,15.6,0h143.3c4.2,0,7.9,1.5,11,4.4s4.6,6.5,4.6,10.6
	c0,4.9-1.6,9.6-4.8,14.1c-3.2,4.5-7.1,8.3-11.9,11.5c-24.4,16.3-39.6,26.4-45.6,30.4c-0.6,0.4-2,1.4-4.1,2.9
	c-2.1,1.5-3.9,2.7-5.3,3.6c-1.4,0.9-3.1,1.9-5.1,3c-2,1.1-3.8,2-5.6,2.5c-1.8,0.6-3.4,0.8-4.9,0.8h-0.1h-0.1c-1.5,0-3.1-0.3-4.9-0.8
	c-1.8-0.6-3.6-1.4-5.6-2.5c-2-1.1-3.7-2.1-5.1-3c-1.4-0.9-3.1-2.1-5.3-3.6c-2.1-1.5-3.5-2.4-4.1-2.9c-5.9-4-14.4-9.7-25.5-17.1
	c-11.1-7.4-17.8-11.8-20-13.3c-4-2.6-7.8-6.2-11.4-10.8C1.8,25.2,0,21,0,17z M0,116.8V42.5c2.9,3.1,6.1,5.8,9.8,8.1
	C33.3,66,49.5,76.8,58.2,82.9c3.7,2.6,6.7,4.7,9,6.1c2.3,1.5,5.4,3,9.2,4.5c3.8,1.5,7.4,2.3,10.7,2.3h0.1h0.1
	c3.3,0,6.9-0.8,10.7-2.3c3.8-1.5,6.9-3,9.2-4.5c2.3-1.5,5.3-3.5,9-6.1c11-7.7,27.2-18.4,48.5-32.3c3.7-2.4,6.9-5.1,9.7-8.1v74.3
	c0,4.1-1.5,7.6-4.6,10.6c-3.1,2.9-6.7,4.4-11,4.4H15.6c-4.3,0-8-1.5-11-4.4C1.5,124.5,0,121,0,116.8z"/>
</svg>
