<?xml version="1.0" encoding="utf-8"?>
<!-- Generator: Adobe Illustrator 18.0.0, SVG Export Plug-In . SVG Version: 6.00 Build 0)  -->
<!DOCTYPE svg PUBLIC "-//W3C//DTD SVG 1.0//EN" "http://www.w3.org/TR/2001/REC-SVG-20010904/DTD/svg10.dtd">
<svg version="1.0" id="Layer_1" xmlns="http://www.w3.org/2000/svg" xmlns:xlink="http://www.w3.org/1999/xlink" x="0px" y="0px"
	 viewBox="0 0 31.4 52.2" enable-background="new 0 0 31.4 52.2" xml:space="preserve">
<g>
	<g>
		<path fill-rule="evenodd" clip-rule="evenodd" fill="#F29100" d="M14.7,29.9c-0.1-0.4-0.1-0.7-0.1-0.8c0,0.3-0.1,0.6-0.2,0.9
			c-0.1,0.3-0.2,1.1-0.5,2.4h1.4l-0.4-1.7C14.9,30.6,14.8,30.3,14.7,29.9z"/>
		<path fill-rule="evenodd" clip-rule="evenodd" fill="#F29100" d="M25.4,29.9c-0.1-0.4-0.1-0.7-0.1-0.8c0,0.3-0.1,0.6-0.2,0.9
			c-0.1,0.3-0.2,1.1-0.5,2.4H26l-0.4-1.7C25.6,30.6,25.5,30.3,25.4,29.9z"/>
		<path fill-rule="evenodd" clip-rule="evenodd" fill="#F29100" d="M31.4,17.5L31.4,17.5l-0.2-0.7L28.9,7l0-6.1
			c0-0.5-0.6-0.8-1.4-0.8L15.7,0v0L3.9,0C3.1,0,2.5,0.4,2.5,0.8l0,6h0l-2.3,9.9h0L0,17.4l0,0h0l0,26.4l0,1.5h0l0,6.1
			c0,0.5,0.3,0.8,0.7,0.8l15,0v0l14.9,0c0.4,0,0.7-0.4,0.7-0.8l0-2.1h0l0-2.4l0-1.6h0l0-1.6l0-17.3h0l0-2.4h0h0l0-1.6h0l0-2.4h0
			L31.4,17.5L31.4,17.5z M11.2,35.4H9.9v-5c0-0.4,0-0.8,0.1-1.3h0l-1.4,6.2H7.1l-1.4-6.2H5.6c0.1,0.5,0.1,0.9,0.1,1.3v4.9H4.5v-7.3
			h2.1l1.3,5.8h0l1.2-5.8h2.1V35.4z M16.6,36.9c0.1,0.1,0.2,0.1,0.3,0.1c0.1,0,0.3,0,0.4-0.1v0.8c-0.2,0.1-0.4,0.1-0.6,0.1
			c-0.3,0-0.6-0.1-0.8-0.3s-0.3-0.5-0.3-0.8c0-0.5,0.3-0.9,0.8-1.3H16l-0.4-1.8h-1.9l-0.4,1.8h-1.4l1.8-7.4h1.8l1.8,7.4h-0.2
			c-0.4,0.4-0.6,0.8-0.6,1.1C16.5,36.7,16.6,36.8,16.6,36.9z M26.6,35.4l-0.4-1.8h-1.9l-0.4,1.8h-1.4h-1.5l-1.2-3.1l-0.5,0.5v2.6H18
			v-7.3h1.4v3.6l0.5-1.1l1.2-2.5h1.5l-1.7,3.2l1.7,4.2l1.8-7.4h1.8l1.8,7.4H26.6z"/>
	</g>
</g>
</svg>
