<?xml version="1.0" encoding="utf-8"?>
<!-- Generator: Adobe Illustrator 18.0.0, SVG Export Plug-In . SVG Version: 6.00 Build 0)  -->
<!DOCTYPE svg PUBLIC "-//W3C//DTD SVG 1.0//EN" "http://www.w3.org/TR/2001/REC-SVG-20010904/DTD/svg10.dtd">
<svg version="1.0" id="Warstwa_1" xmlns="http://www.w3.org/2000/svg" xmlns:xlink="http://www.w3.org/1999/xlink" x="0px" y="0px"
	 viewBox="0 0 59.1 59" enable-background="new 0 0 59.1 59" xml:space="preserve">
<g>
	<path fill="#B0B1B3" d="M2.3,41C0.8,37.3,0,33.5,0,29.5c0-4,0.8-7.8,2.3-11.5S6,11.2,8.6,8.6C11.3,6,14.4,3.9,18,2.3S25.5,0,29.5,0
		S37.3,0.8,41,2.3s6.8,3.7,9.4,6.3c2.6,2.6,4.7,5.8,6.3,9.4c1.6,3.6,2.3,7.5,2.3,11.5c0,4-0.8,7.8-2.3,11.5
		c-1.6,3.7-3.7,6.8-6.3,9.4c-2.6,2.6-5.8,4.7-9.4,6.3c-3.7,1.6-7.5,2.3-11.5,2.3s-7.8-0.8-11.5-2.3c-3.6-1.6-6.8-3.7-9.4-6.3
		C6,47.8,3.9,44.6,2.3,41z M3.6,29.5c0,3.5,0.7,6.9,2.1,10.1c1.4,3.2,3.2,6,5.5,8.3c2.3,2.3,5.1,4.2,8.3,5.5s6.6,2.1,10.1,2.1
		c4.7,0,9-1.2,13-3.5c4-2.3,7.2-5.5,9.5-9.5c2.3-4,3.5-8.3,3.5-13c0-4.7-1.2-9-3.5-13s-5.5-7.1-9.5-9.4s-8.3-3.5-13-3.5
		c-4.7,0-9,1.2-13,3.5s-7.1,5.5-9.4,9.4S3.6,24.8,3.6,29.5z M23,45.4c0-0.5,0.2-0.9,0.5-1.3l14.4-14.4L23.5,14.9
		c-0.3-0.3-0.5-0.7-0.5-1.2c0-0.5,0.2-0.9,0.5-1.3c0.3-0.3,0.7-0.5,1.2-0.5c0.5,0,0.9,0.2,1.3,0.5l15.7,16c0.3,0.3,0.5,0.7,0.5,1.2
		c0,0.5-0.2,0.9-0.5,1.3L26.1,46.6c-0.4,0.4-0.8,0.5-1.3,0.5c-0.5,0-1-0.2-1.3-0.5C23.2,46.3,23,45.9,23,45.4z"/>
</g>
</svg>
