<?xml version="1.0" encoding="utf-8"?>
<!-- Generator: Adobe Illustrator 18.0.0, SVG Export Plug-In . SVG Version: 6.00 Build 0)  -->
<!DOCTYPE svg PUBLIC "-//W3C//DTD SVG 1.0//EN" "http://www.w3.org/TR/2001/REC-SVG-20010904/DTD/svg10.dtd">
<svg version="1.0" id="Layer_1" xmlns="http://www.w3.org/2000/svg" xmlns:xlink="http://www.w3.org/1999/xlink" x="0px" y="0px"
	 viewBox="0 0 27.7 78.5" enable-background="new 0 0 27.7 78.5" xml:space="preserve">
<g>
	<g>
		<path fill="#F29100" d="M26.4,50.8c0.1-0.2,0.2-0.3,0.3-0.4c0,0,0,0,0,0c0.2-0.3,0.6-0.4,0.9-0.4c0,0,0.1,0,0.1,0c0,0,0,0,0,0
			V27.8c0-2.4-3.4-9.7-5.7-14.3h0c0-0.1-0.1-0.2-0.1-0.2c-0.1-0.1-0.1-0.3-0.2-0.4c-0.1-0.2-0.2-0.3-0.3-0.5h0V8h-2.3V6.5h1V0h-1
			H8.6h-1v6.5h1V8H6.1v4.3h0c-0.1,0.2-0.2,0.3-0.2,0.5c-0.1,0.1-0.1,0.2-0.2,0.4c0,0.1-0.1,0.2-0.1,0.3h0C3.3,18.1,0,25.4,0,27.8
			v22.1h0c0.8,0,1.4,0.6,1.4,1.4S0.8,52.8,0,52.8h0v3.9h0c0.8,0,1.4,0.6,1.4,1.4c0,0.8-0.6,1.4-1.4,1.4h0v3.9h0
			c0.8,0,1.4,0.6,1.4,1.4c0,0.8-0.6,1.4-1.4,1.4h0v5.2c0,2.2,1,4.1,2.5,5.4h0c0,0,0,0,0,0c0.1,0.1,0.3,0.2,0.4,0.3
			c0,0,0.1,0.1,0.1,0.1c0.1,0.1,0.2,0.2,0.4,0.2c0.1,0,0.1,0.1,0.2,0.1c0.1,0.1,0.2,0.1,0.4,0.2c0.1,0,0.2,0.1,0.2,0.1
			C4.3,77.9,4.4,78,4.5,78c0.1,0,0.2,0.1,0.3,0.1c0.1,0,0.2,0.1,0.3,0.1c0.1,0,0.2,0.1,0.3,0.1c0.1,0,0.2,0,0.3,0.1
			c0.1,0,0.3,0,0.4,0.1c0.1,0,0.2,0,0.2,0c0.2,0,0.5,0,0.7,0h13.5c0.2,0,0.5,0,0.7,0c0.1,0,0.2,0,0.2,0c0.1,0,0.3,0,0.4-0.1
			c0.1,0,0.2,0,0.3-0.1c0.1,0,0.2-0.1,0.3-0.1c0.1,0,0.2-0.1,0.3-0.1c0.1,0,0.2-0.1,0.3-0.1c0.1,0,0.2-0.1,0.3-0.1
			c0.1,0,0.2-0.1,0.2-0.1c0.1-0.1,0.2-0.1,0.4-0.2c0.1,0,0.1-0.1,0.2-0.1c0.1-0.1,0.3-0.2,0.4-0.2c0,0,0.1-0.1,0.1-0.1
			c0.1-0.1,0.3-0.2,0.4-0.3c0,0,0,0,0,0c1.5-1.3,2.5-3.2,2.5-5.4v-5.2v0c0,0,0,0,0,0c-0.8,0-1.4-0.6-1.4-1.4c0-0.2,0-0.4,0.1-0.5
			c0,0,0,0,0,0c0.1-0.2,0.2-0.3,0.3-0.4c0,0,0,0,0,0c0.2-0.3,0.6-0.4,0.9-0.4c0,0,0.1,0,0.1,0c0,0,0,0,0,0v-3.9v0c0,0,0,0,0,0
			c-0.8,0-1.4-0.6-1.4-1.4c0-0.2,0-0.4,0.1-0.5c0,0,0,0,0,0c0.1-0.2,0.2-0.3,0.3-0.4c0,0,0,0,0,0c0.2-0.3,0.6-0.4,0.9-0.4
			c0,0,0.1,0,0.1,0c0,0,0,0,0,0v-3.9v0c0,0,0,0,0,0c-0.7,0-1.3-0.5-1.4-1.1c0-0.1,0-0.2,0-0.3C26.3,51.2,26.4,51,26.4,50.8
			C26.4,50.8,26.4,50.8,26.4,50.8z M8.9,40c-0.5,0.8-1.3,1.1-2.3,1.1c-1,0-1.8-0.4-2.3-1.1s-0.8-1.9-0.8-3.3c0-1.4,0.3-2.5,0.8-3.3
			s1.3-1.1,2.3-1.1c1,0,1.7,0.4,2.3,1.1s0.8,1.8,0.8,3.3S9.4,39.2,8.9,40z M14.7,41h-3.8v-8.6h1.6v7.2h2.2V41z M15.7,32.4h3.9v1.4
			h-2.3v2h2.1v1.4h-2.1v2.4h2.3V41h-3.9V32.4z M22.4,40.7c0,0.6-0.1,1.1-0.3,1.5s-0.5,0.7-0.8,0.9s-0.7,0.3-1.2,0.3
			c-0.4,0-0.7,0-1-0.1v-1.4c0.3,0.1,0.5,0.1,0.7,0.1c0.3,0,0.6-0.1,0.7-0.3s0.2-0.5,0.2-0.9v-8.4h1.6V40.7z"/>
		<path fill="#F29100" d="M6.6,33.7c-0.5,0-0.8,0.3-1.1,0.8s-0.4,1.3-0.4,2.2c0,1,0.1,1.7,0.4,2.2s0.6,0.8,1.1,0.8c1,0,1.4-1,1.4-3
			S7.6,33.7,6.6,33.7z"/>
	</g>
</g>
</svg>
