<?xml version="1.0" encoding="utf-8"?>
<!-- Generator: Adobe Illustrator 18.0.0, SVG Export Plug-In . SVG Version: 6.00 Build 0)  -->
<!DOCTYPE svg PUBLIC "-//W3C//DTD SVG 1.0//EN" "http://www.w3.org/TR/2001/REC-SVG-20010904/DTD/svg10.dtd">
<svg version="1.0" id="Warstwa_1" xmlns="http://www.w3.org/2000/svg" xmlns:xlink="http://www.w3.org/1999/xlink" x="0px" y="0px"
	 viewBox="0 0 59.1 59" enable-background="new 0 0 59.1 59" xml:space="preserve">
<g>
	<path fill="#B0B1B3" d="M56.7,18.1c1.6,3.7,2.3,7.5,2.3,11.5c0,4-0.8,7.8-2.3,11.5c-1.6,3.6-3.7,6.8-6.3,9.4
		c-2.6,2.6-5.8,4.7-9.4,6.3S33.6,59,29.6,59s-7.8-0.8-11.5-2.3s-6.8-3.7-9.4-6.3C6,47.8,3.9,44.7,2.3,41C0.8,37.4,0,33.6,0,29.6
		c0-4,0.8-7.8,2.3-11.5c1.6-3.7,3.7-6.8,6.3-9.4c2.6-2.6,5.8-4.7,9.4-6.3C21.7,0.8,25.6,0,29.6,0c4,0,7.8,0.8,11.5,2.3
		c3.6,1.6,6.8,3.7,9.4,6.3C53.1,11.3,55.2,14.4,56.7,18.1z M55.5,29.6c0-3.5-0.7-6.9-2.1-10.1c-1.4-3.2-3.2-6-5.5-8.3
		c-2.3-2.3-5.1-4.2-8.3-5.5s-6.6-2.1-10.1-2.1c-4.7,0-9,1.2-13,3.5c-4,2.3-7.2,5.5-9.5,9.5c-2.3,4-3.5,8.3-3.5,13
		c0,4.7,1.2,9,3.5,13s5.5,7.1,9.5,9.4c4,2.3,8.3,3.5,13,3.5c4.7,0,9-1.2,13-3.5c4-2.3,7.1-5.5,9.4-9.4S55.5,34.2,55.5,29.6z
		 M36.1,13.7c0,0.5-0.2,0.9-0.5,1.3L21.2,29.4l14.4,14.8c0.3,0.3,0.5,0.7,0.5,1.2c0,0.5-0.2,0.9-0.5,1.3c-0.3,0.3-0.7,0.5-1.2,0.5
		S33.4,47,33,46.6l-15.7-16c-0.3-0.3-0.5-0.7-0.5-1.2c0-0.5,0.2-0.9,0.5-1.3L33,12.5c0.4-0.4,0.8-0.5,1.3-0.5c0.5,0,1,0.2,1.3,0.5
		C35.9,12.8,36.1,13.2,36.1,13.7z"/>
</g>
</svg>
