<?xml version="1.0" encoding="utf-8"?>
<!-- Generator: Adobe Illustrator 18.0.0, SVG Export Plug-In . SVG Version: 6.00 Build 0)  -->
<!DOCTYPE svg PUBLIC "-//W3C//DTD SVG 1.0//EN" "http://www.w3.org/TR/2001/REC-SVG-20010904/DTD/svg10.dtd">
<svg version="1.0" id="Warstwa_1" xmlns="http://www.w3.org/2000/svg" xmlns:xlink="http://www.w3.org/1999/xlink" x="0px" y="0px"
	 viewBox="0 0 207.2 183.8" enable-background="new 0 0 207.2 183.8" xml:space="preserve">
<path fill="#FF9100" d="M0,149.3V99.6c0-6.3,2.3-11.7,7-16.2c4.7-4.5,10.3-6.8,16.9-6.8h8V11.5c0-3.2,1.2-5.9,3.5-8.1
	C37.7,1.1,40.5,0,43.8,0h83.6c3.3,0,7,0.8,11,2.4c4,1.6,7.1,3.5,9.5,5.7l18.9,18.2c2.3,2.2,4.3,5.3,6,9.1c1.7,3.8,2.5,7.3,2.5,10.5
	v30.6h8c6.6,0,12.2,2.3,16.9,6.8c4.7,4.5,7,9.9,7,16.2v49.8c0,1-0.4,1.9-1.2,2.7c-0.8,0.8-1.7,1.1-2.8,1.1h-27.9v19.1
	c0,3.2-1.2,5.9-3.5,8.1c-2.3,2.2-5.1,3.3-8.5,3.3H43.8c-3.3,0-6.1-1.1-8.5-3.3c-2.3-2.2-3.5-4.9-3.5-8.1v-19.1H4
	c-1.1,0-2-0.4-2.8-1.1C0.4,151.3,0,150.4,0,149.3z M47.8,91.9h111.5V45.9h-19.9c-3.3,0-6.1-1.1-8.5-3.3c-2.3-2.2-3.5-4.9-3.5-8.1
	V15.3H47.8V91.9z M47.8,168.5h111.5v-30.6H47.8V168.5z M177.6,94.2c-1.6,1.5-2.4,3.3-2.4,5.4c0,2.1,0.8,3.9,2.4,5.4
	c1.6,1.5,3.4,2.3,5.6,2.3c2.2,0,4-0.8,5.6-2.3c1.6-1.5,2.4-3.3,2.4-5.4c0-2.1-0.8-3.9-2.4-5.4c-1.6-1.5-3.4-2.3-5.6-2.3
	C181.1,91.9,179.2,92.7,177.6,94.2z"/>
</svg>
