<?xml version="1.0" encoding="utf-8"?>
<!-- Generator: Adobe Illustrator 18.0.0, SVG Export Plug-In . SVG Version: 6.00 Build 0)  -->
<!DOCTYPE svg PUBLIC "-//W3C//DTD SVG 1.0//EN" "http://www.w3.org/TR/2001/REC-SVG-20010904/DTD/svg10.dtd">
<svg version="1.0" id="Warstwa_1" xmlns="http://www.w3.org/2000/svg" xmlns:xlink="http://www.w3.org/1999/xlink" x="0px" y="0px"
	 viewBox="0 0 47.3 84.1" enable-background="new 0 0 47.3 84.1" xml:space="preserve">
<path fill="#F29223" d="M41.1,22.1c-4.1-4.5-9.1-7-15.2-7.6c-0.2-5.6-1.7-9.6-4.6-12c-1-0.9-2.2-1.6-3.5-2c-1.3-0.4-2.3-0.6-3-0.5
	c-0.7,0-1.2,0.1-1.3,0.2C12.9,0.2,12.4,0.5,12,1c-0.4,0.5-0.5,1.1-0.4,1.7c0.1,0.6,0.4,1.1,0.9,1.4c0.5,0.3,1.1,0.5,1.7,0.4h0.1
	c0.1,0,0.1,0,0.2,0c0.1,0,0.2,0,0.3,0c0.1,0,0.2,0,0.4,0c0.1,0,0.3,0,0.5,0.1c0.2,0,0.3,0.1,0.5,0.1c0.2,0,0.3,0.1,0.6,0.2
	c0.2,0.1,0.4,0.1,0.6,0.2c0.2,0.1,0.4,0.2,0.6,0.3c0.2,0.1,0.4,0.3,0.6,0.4c1.8,1.6,2.8,4.5,2.9,8.7c-4,0.4-7.6,1.6-10.9,3.8
	c-3.3,2.2-5.8,5-7.7,8.5S0,34,0,38v22.5C0,67,2.3,72.6,6.9,77.2c4.6,4.6,10.1,6.9,16.7,6.9h0.1c3.2,0,6.3-0.6,9.2-1.9
	c2.9-1.2,5.4-2.9,7.5-5c2.1-2.1,3.8-4.6,5-7.5c1.2-2.9,1.9-6,1.9-9.2V38C47.3,31.9,45.2,26.6,41.1,22.1z M29.7,40.4
	c0,1.5-0.5,2.7-1.6,3.8c-1.1,1.1-2.3,1.6-3.8,1.6H23c-1.5,0-2.8-0.5-3.9-1.6c-1.1-1.1-1.6-2.3-1.6-3.8v-9.5c0-1.5,0.5-2.8,1.6-3.9
	c1.1-1.1,2.4-1.6,3.9-1.6h1.4c1.5,0,2.7,0.5,3.8,1.6c1.1,1.1,1.6,2.3,1.6,3.9V40.4z"/>
<path fill="#F29223" d="M25.2,40.4c0,0.2-0.1,0.4-0.2,0.6s-0.4,0.2-0.6,0.2H23c-0.1,0-0.3-0.1-0.7-0.2c-0.2-0.2-0.2-0.4-0.2-0.6
	v-9.5c0-0.2,0.1-0.4,0.3-0.6c0.2-0.2,0.4-0.2,0.6-0.2h1.4c0.2,0,0.4,0.1,0.6,0.2c0.2,0.2,0.2,0.3,0.2,0.6V40.4z"/>
</svg>
