<?xml version="1.0" encoding="utf-8"?>
<!-- Generator: Adobe Illustrator 18.0.0, SVG Export Plug-In . SVG Version: 6.00 Build 0)  -->
<!DOCTYPE svg PUBLIC "-//W3C//DTD SVG 1.0//EN" "http://www.w3.org/TR/2001/REC-SVG-20010904/DTD/svg10.dtd">
<svg version="1.0" id="Warstwa_1" xmlns="http://www.w3.org/2000/svg" xmlns:xlink="http://www.w3.org/1999/xlink" x="0px" y="0px"
	 viewBox="0 0 56.1 52.4" enable-background="new 0 0 56.1 52.4" xml:space="preserve">
<g>
	<path fill="#FF9202" d="M45.8,48h-17h-2.4h-17c0,0-3.2,0-3.2,2.7v1.5h17.8h7.1H49v-1.5C49,48,45.8,48,45.8,48z"/>
	<path fill="#FF9202" d="M9.1,47.4h17.1H29h17.1v-20h-37V47.4z M22.9,29.5h21.3v13.7H22.9V29.5z M11.6,29.5h9.6v13.7h-9.6V29.5z"/>
	<path fill="#FF9202" d="M46.1,26.3h5.6l-4.7-14H35.4V9.6h1.4c1.5,0,2.8-1.2,2.8-2.8V2.8c0-1.5-1.2-2.8-2.8-2.8H19
		c-1.5,0-2.8,1.2-2.8,2.8v3.9c0,1.5,1.2,2.8,2.8,2.8h1.2v2.8H8.7L4,26.3h5.1H46.1z M25.4,25.5l0.2-11.7h2.2h0h2.3l0.2,11.7H25.4z
		 M46.6,13.8l3.8,11.7h-4.1l-1.9-11.7H46.6z M39.6,13.8L41,25.5h-5.6l-0.8-11.7H39.6z M21.2,9.6h13.1v2.8H21.2V9.6z M21.7,13.8
		l-0.8,11.7h-5.6l1.5-11.7H21.7z M5.4,25.5l3.7-11.7h2.8L10,25.5H9.1H5.4z"/>
	<path fill="#FF9202" d="M13.4,33.4c-0.4,0-0.8,0.4-0.8,0.8v0.5c0,0.2,0.1,0.4,0.2,0.6c0.1,0.1,0.3,0.2,0.6,0.2
		c0.5,0,0.8-0.4,0.8-0.8v-0.5c0-0.2-0.1-0.4-0.2-0.6C13.8,33.5,13.6,33.4,13.4,33.4z"/>
</g>
</svg>
