<?xml version="1.0" encoding="utf-8"?>
<!-- Generator: Adobe Illustrator 18.0.0, SVG Export Plug-In . SVG Version: 6.00 Build 0)  -->
<!DOCTYPE svg PUBLIC "-//W3C//DTD SVG 1.0//EN" "http://www.w3.org/TR/2001/REC-SVG-20010904/DTD/svg10.dtd">
<svg version="1.0" id="Layer_1" xmlns="http://www.w3.org/2000/svg" xmlns:xlink="http://www.w3.org/1999/xlink" x="0px" y="0px"
	 viewBox="0 0 68.2 46.1" enable-background="new 0 0 68.2 46.1" xml:space="preserve">
<g>
	<polygon fill-rule="evenodd" clip-rule="evenodd" fill="#F29100" points="60,19.5 59.6,18.4 58.8,16 58.2,14.2 48.3,17.4 
		38.3,20.7 38.9,22.5 39.7,24.9 40.1,26 32.5,23.2 33.1,25.1 33.8,27.4 34.7,30.1 36.3,34.9 40.7,28.1 41.7,31.2 42.5,33.5 
		52.4,30.2 62.4,26.9 61.7,24.7 60.7,21.6 68.2,24.4 66.7,19.7 66.7,19.7 65.8,16.9 65,14.7 64.4,12.7 64.4,12.7 	"/>
	<polygon fill-rule="evenodd" clip-rule="evenodd" fill="#F29100" points="27.5,36.8 28.1,35.7 29.3,33.5 30.1,31.8 20.9,26.9 
		11.6,22.1 10.7,23.8 9.5,26 9,27.1 5.7,19.7 4.8,21.4 3.7,23.5 2.3,26.1 0,30.6 7.9,29 6.4,31.9 5.3,34 14.6,38.9 23.9,43.7 
		25,41.6 26.5,38.7 29.8,46.1 32.1,41.7 32.1,41.7 33.4,39.1 34.5,37 35.5,35.2 35.5,35.2 	"/>
	<polygon fill-rule="evenodd" clip-rule="evenodd" fill="#F29100" points="39.4,6 39.2,4.8 38.8,2.3 38.5,0.4 28.1,2.1 17.8,3.7 
		18.1,5.6 18.5,8.1 18.7,9.3 11.6,5.3 12,7.3 12.3,9.6 12.8,12.5 13.6,17.4 19,11.4 19.5,14.6 19.9,17 30.3,15.4 40.6,13.7 
		40.2,11.3 39.7,8.2 46.7,12.2 46,7.2 46,7.2 45.5,4.3 45.1,2 44.8,0 44.8,0 	"/>
</g>
</svg>
