<?xml version="1.0" encoding="utf-8"?>
<!-- Generator: Adobe Illustrator 18.0.0, SVG Export Plug-In . SVG Version: 6.00 Build 0)  -->
<!DOCTYPE svg PUBLIC "-//W3C//DTD SVG 1.0//EN" "http://www.w3.org/TR/2001/REC-SVG-20010904/DTD/svg10.dtd">
<svg version="1.0" id="Layer_1" xmlns="http://www.w3.org/2000/svg" xmlns:xlink="http://www.w3.org/1999/xlink" x="0px" y="0px"
	 viewBox="0 0 48 48" enable-background="new 0 0 48 48" xml:space="preserve">
<g>
	<path fill="#FF9202" d="M24,0c3.3,0,6.5,0.6,9.4,1.9c2.9,1.3,5.4,3,7.6,5.2c2.2,2.2,3.9,4.7,5.2,7.6c1.3,2.9,1.9,6,1.9,9.4
		s-0.6,6.5-1.9,9.4c-1.3,2.9-3,5.4-5.2,7.6c-2.2,2.2-4.7,3.9-7.6,5.2c-2.9,1.3-6,1.9-9.4,1.9s-6.5-0.6-9.4-1.9
		c-2.9-1.3-5.4-3-7.6-5.2c-2.2-2.2-3.9-4.7-5.2-7.6C0.6,30.5,0,27.3,0,24s0.6-6.5,1.9-9.4c1.3-2.9,3-5.4,5.2-7.6
		c2.2-2.2,4.7-3.9,7.6-5.2C17.6,0.6,20.7,0,24,0z M33.8,19.6c1-0.7,1.8-1.5,2.3-2.4c-0.4,0.1-0.8,0.3-1.2,0.4
		c-0.4,0.1-0.9,0.2-1.5,0.3c1-0.6,1.7-1.5,2.1-2.6c-1,0.5-2,0.9-3,1.1C31.6,15.5,30.4,15,29,15c-1.3,0-2.5,0.4-3.4,1.3
		c-0.9,0.9-1.3,2-1.3,3.4c0,0.1,0,0.3,0,0.5c0,0.2,0.1,0.4,0.1,0.6c-1.9-0.1-3.8-0.6-5.5-1.5c-1.7-0.9-3.1-2-4.3-3.5
		c-0.5,0.8-0.7,1.6-0.7,2.4s0.2,1.6,0.6,2.3c0.4,0.7,0.9,1.3,1.6,1.7c-0.9,0-1.6-0.2-2.2-0.6v0.1c0,1.1,0.4,2.1,1.1,3
		c0.7,0.9,1.6,1.4,2.8,1.6c-0.5,0.1-0.9,0.2-1.2,0.2c-0.4,0-0.7,0-0.9-0.1c0.3,0.9,0.9,1.7,1.7,2.4c0.8,0.6,1.7,1,2.8,1
		c-1.7,1.3-3.6,2-5.9,2h-1.1c1.1,0.7,2.2,1.2,3.4,1.6s2.5,0.6,3.8,0.6c2.2,0,4.1-0.4,5.8-1.2c1.7-0.8,3.1-1.9,4.2-3.2
		c1.1-1.3,2-2.8,2.6-4.4c0.6-1.6,0.9-3.2,0.9-4.8V19.6z"/>
</g>
</svg>
