<?xml version="1.0" encoding="utf-8"?>
<!-- Generator: Adobe Illustrator 18.0.0, SVG Export Plug-In . SVG Version: 6.00 Build 0)  -->
<!DOCTYPE svg PUBLIC "-//W3C//DTD SVG 1.0//EN" "http://www.w3.org/TR/2001/REC-SVG-20010904/DTD/svg10.dtd">
<svg version="1.0" id="Warstwa_1" xmlns="http://www.w3.org/2000/svg" xmlns:xlink="http://www.w3.org/1999/xlink" x="0px" y="0px"
	 viewBox="0 0 441.3 404.4" enable-background="new 0 0 441.3 404.4" xml:space="preserve">
<g>
	<path fill="#EDEDED" d="M83.4,40.1c0,0,11-1.3,14.3-5s11.3-13.7,14.3-15.3s23.7-9,27.3-10c3.7-1,21.7-8.7,31-7.7
		c9.3,1,18-1.3,26.7,5.3c8.7,6.7,12,13.2,9.7,13.6s-6.3-2.3-9.7-5.6c-3.3-3.3-8-6.3-7.7-3c0.3,3.3,4.7,14.7,7,17.3
		c2.3,2.7,7,8.3,19.3,5.7c12.3-2.7,24.6-8,24.6-8s62.4,7.7,74,7.3c11.7-0.3,45.3-4,51.3-7s7.7-3.7,10-0.3c2.3,3.3,8,8,13,9.3
		s8.3,8.7,8.3,15s3.3,17.7,4.3,19.3c1,1.7,3.7,10.3,4.7,15.3s5,16.7,7.3,22.3c2.3,5.7,7.3,15.7,6,22.3c-1.3,6.7-0.3,9.3-2.7,11.3
		c-2.3,2-7,4.7-8.3,6.7c-1.3,2-7,7.7-9,8.3s-7.3,7.7-7.3,10.7s2.3,8.7,9,11.7s9.7,6.7,10.7,9c1,2.3,1.7,8.3,0.7,17.7s-0.7,19,1,23.7
		c1.7,4.7,9.7,15.7,11,19c1.3,3.3,10.3,23.3,11,25.7c0.7,2.3,8.3,17,0,20.7c-8.3,3.7-19,18.3-20.7,20c-1.7,1.7-14.3,20.7-15.7,22.7
		s-12.7,15-14.3,17.3c-1.7,2.3-7,8.7-6.3,11.3c0.7,2.7,5.3,4.7,5.3,8.7s-1.3,14.7,0.7,15.7s8.7,7,8.7,9s-7.7,4-15,0
		s-19.3-8.7-21-10.3c-1.7-1.7-14-11-18.3-12.3c-4.3-1.3-12-4.3-16.7-3.7c-4.7,0.7-11.7-1.3-13.7,3c-2,4.3-4,8.3-5.7,7.7
		c-1.7-0.7-10.7-8.7-12-8.7c-1.3,0-20.7,3.3-24,8.3c-3.3,5-3.3,10-9.3,9.7c-6-0.3-8.3,0.7-8-3c0.3-3.7-0.3-9-2-11
		c-1.7-2-10.7-6.7-11.7-10c-1-3.3-5-8.3-8-4c-3,4.3-7.3,17-11.3,16.3c-4-0.7-7.3-10-8.3-12.7s-9.3-10.4-10.7-12.1
		c-1.3-1.6-3-9.3-3-10.6c0-1.3-1.3-2.7-4.3-4c-3-1.3-14.7-5.3-17.7-7.7c-3-2.3-6-1-7.7,1.3s-8.3,2.7-10.7-2c-2.3-4.7-4-7.7-2-10.3
		c2-2.7,5.7-4,5.7-6.7s-3.7-5-6-3.7c-2.3,1.3-7.7,5-15.7-1s-15-8.3-17-6.3s-0.7,5,1.3,7.7c2,2.7,4,5.3,2,7.3s-5.3,1.7-7.3,3.3
		c-2,1.7-8.7,5.7-9.7,4.3c-1-1.3-10-15.7-11.7-17.7s-7.7-8.7-5.7-10.3c2-1.7,9.7-2.3,9.3-5c-0.3-2.7-4.3-8.3-11.3-7.7
		s-11,4.3-14.3,0.3s-14.7-12.7-18.3-15.7c-3.7-3-11.3-9-13-9.3c-1.7-0.3-4-2.7-6.3,3.3s-6.7,7-7.7,5s-2.7-1,2.7-9.7
		c5.3-8.7,8.7-18.7,5.3-25.7c-3.3-7-11-10-11.7-16.3c-0.7-6.3-2.7-19.3-1.7-22.3s8-12,7-14.7s-7.5-11.3-7.3-15.7
		c0.3-4.3,1.9-13.7,1.6-14.7c-0.3-1-7-5-8-6.7s-4.7-9.7-7.3-10s-4.7-3-5-6s0.3-6,3.3-9s11-9.3,10.7-16c-0.3-6.7-3.7-29.3-4.7-31.7
		s0.7-5.3,0-8c-0.7-2.7-1-6.7-0.3-8c0.7-1.3,6.7,0.7,6.7,0.7c7-1.3,28.7-10.3,31.7-11C52.4,46.8,74.1,40.4,83.4,40.1z"/>
	<g>
		<path fill="none" stroke="#B2B2B2" stroke-miterlimit="10" d="M416.7,313.1c0,0-5.1,0-6.4-3.5c-1.3-3.5-1.7-5.7-2.3-5.7
			c-0.7,0-10.7,3.5-11.3,4.6c-0.7,1.1-6.3,4.3-8.7,4.6c-2.3,0.3-16.8-3.8-18-4.6c-1.2-0.8-6.7-0.7-8.8,0c-2.2,0.7-9.7,3.9-12.2,3.2
			c-2.5-0.7-5.3-5.2-8.2-5.5c-2.8-0.3-9,0.4-11.3,2.3c-2.3,1.9-0.8,3.4,0,7.1c0.8,3.7-1.2,8.7-7.8,9.8s-12,0.8-12.5,1.3"/>
		<path fill="none" stroke="#B2B2B2" stroke-miterlimit="10" d="M230.6,364.1c0,0,1.3-2.3-3.2-9c-4.5-6.7-7.3-8.9-10.5-12.2
			c-3.2-3.3-3.7-3.5,0-7.3c3.7-3.8,7.8-6.8,7.8-10.2s-1-9.7,0.8-11.5c1.8-1.8,8.3-5,8.3-5s8,0,10.2-1c2.2-1,4.8-4,9.8-4.8
			s10-0.6,12.7,2.1c2.7,2.7,2,8,2.2,9.2c0.2,1.2,0.8,5.2,2.3,5.8c1.5,0.7,7,3.9,9.3,4c2.3,0.1,10.8-3.2,14.8-6.7s8-6.3,9.2-5.7
			c1.2,0.7,3.8,0,3.8,0s1.3,6.7,2,8.7c0.7,2-1.2,8.7-1.2,12.2s1.3,4.3,3.8,6.2s2,3.8,0.3,5.8c-1.7,2-3.7,2.3-2.7,5s5.3,4.5,7,5.8
			c1.7,1.3,2.2,5.2,2.2,5.2v13.1"/>
		<path fill="none" stroke="#B2B2B2" stroke-miterlimit="10" d="M366.9,307.3c0.2-0.5,3-8.5,2.8-9.7c-0.2-1.2-2.3-6.7-2.8-6.7
			s-11.8,2.4-12.2,1.1c-0.3-1.3,1.1-7.8-0.6-9.3c-1.7-1.5-4.1-5.3-7.8-4.3c-3.6,1-9.1,4.5-10.5,7.7c-1.3,3.2-4.2,8.3-9,11.5
			c-4.8,3.2-18.7,14.3-18.7,14.3"/>
		<path fill="none" stroke="#B2B2B2" stroke-miterlimit="10" d="M233,309.3c0,0-38.3-0.3-39-1.3c-0.7-1-5-5.8-5.2-7.2
			c-0.2-1.3-2.5-7.1-4.3-8.9c-1.8-1.8-6.3-6.1-6.8-10.1s2.7-13.5,3-16s0.8-6.7,0.8-6.7"/>
		<path fill="none" stroke="#B2B2B2" stroke-miterlimit="10" d="M166.9,334c0-0.8,0.6-5.6,3.2-6.5c2.6-0.9,10.8-4.8,10.6-7.4
			c-0.2-2.7,0.5-10.7,1.3-12.8c0.8-2.2,6.4-8,6.4-8"/>
		<path fill="none" stroke="#B2B2B2" stroke-miterlimit="10" d="M123,305.9c0,0,2.6-9.4,5.2-15.6c2.7-6.2,10.5-24.4,15-28
			c4.5-3.7,7.3-6.7,16.3-5.3c9,1.3,14.8,2.5,19.3,2.3c4.5-0.2,13.3,4.3,16.6,4.3c3.3,0,12.8-1.3,15.8,0c3,1.3,4.2,5.2,7.3,5.3
			c3.2,0.2,10.2-0.8,17.3,5.6c2,1.8,3.7,3.8,5.1,5.9c3.7,5.5,5.7,11.2,6.6,13c1.2,2.5,1.9,11.2,1.9,11.2"/>
		<path fill="none" stroke="#B2B2B2" stroke-miterlimit="10" d="M241.9,280.1c0,0,3.8-6,5.2-7.4c1.3-1.4,6.2-6.6,6.5-8.8
			c0.3-2.2,3.2-7.7,5.3-9.3c2.2-1.7,14.2-10.2,14.2-10.2s5.9,9.7,8.3,9.8c2.4,0.2,15.7-1.3,18.2-0.2c2.5,1.2,9.3,6.7,13.5,7.2
			s13.5-0.3,16-0.5c1.5-0.1,3.2,1.2,4.5,2.7c0.8,0.9,1.4,1.9,1.7,2.7c0.7,1.8,2,13.3,2.5,14c0.5,0.7,1.3,2.3,1.3,2.3"/>
		<path fill="none" stroke="#B2B2B2" stroke-miterlimit="10" d="M333.4,261.6c0,0,1.7-9.5,2-10.8c0.3-1.3-0.2-15.7,0-17
			c0.2-1.3,0.1-3.7,0.1-3.7s-7.3-5-9-6.8c-1.7-1.8-3.8-3.7-5-4.3s-10.7-9.7-11.1-11.5c-0.4-1.8-4.9-14.5-4.8-17.3
			c0.1-2.8,1.4-9.3,9.2-13.4c7.8-4.1,8.2-7.2,8.3-9.4c0.2-2.2-2-11.9-1.3-13.3c0.7-1.4,6.8-4.4,8-4.2c1.2,0.2,10.2-1.5,12.8-2.5
			c2.7-1,8.2,0.3,9.8,0c1.7-0.3,5.7,0.7,5.7,0.7"/>
		<path fill="none" stroke="#B2B2B2" stroke-miterlimit="10" d="M324.4,221.1c0,0-2.8-2.2,4.9,0.1c7.7,2.2,6.2-1.8,8.5-10
			s1.8-16.2,5-18.5s31.8-1.8,37.8-3.5s11.8-15.5,13.1-16c0,0-6.9-1.3-9.4-2.3s-8.5-3.2-11.8-3.2s-7.5-0.8-9.6-5.5s-5.1-10.8-4.1-18
			c1-7.2-6.3-2.8-8-4.2s-0.8-2-2-4.2s-4-0.2-7.8,0s-4.8-4.8-5-6.8s-3.5-7-8.8-11.5s-6.8-12.2-6.2-15.2s-2.2-7.5-0.1-8.2s4.3,4,7.8,0
			s14.8-11.8,17.6-12.5s14.9-10.8,15.6-12.5s3.8-8.7,0.5-13.7s-4-10.8-1.5-13.8s6.8-5.2,6.8-8.2s0.4-6.6,0.4-6.6"/>
		<path fill="none" stroke="#B2B2B2" stroke-miterlimit="10" d="M307.4,199.9c-1-0.3-22.8-1.5-25,0c-2.2,1.5-6.3,5.4-5.2,6.9
			c1.2,1.5,3.3,2.5,4.1,5.3c0.9,2.8,0.9,9.3-2.3,9c-3.2-0.3-7.5-1.1-6.8,0c0.7,1.2,2.8,3.2,3.3,5.8s-1.8,7.3-1.2,10
			c0.7,2.7-1.3,7.5-1.3,7.5"/>
		<path fill="none" stroke="#B2B2B2" stroke-miterlimit="10" d="M276.2,205.9c0,0-4.7-2.1-6.7-3.7s-4.5-2.1-5.3-4.8
			c-0.8-2.7-4.6-11.7-7.6-13.2c-2.7-1.3-7.2-3.4-10.6-4.5c-0.5-0.1-0.9-0.3-1.3-0.4c-3.3-0.8-8.6-1-11.7-2.3
			c-3.1-1.3-9.1-3.3-9.8-5.7s0.2-6.2,1-7.7s5.7-9.3,5.3-12.5c-0.3-3.2,0.8-12.5,1.1-14.7c0.3-2.2,4.4-3,6.4-3.7s8-2,9.5-1.2
			c1.5,0.8,6.3,3,7.3,7.5s0.3,11.5,2,13.3c1.7,1.8,7,10.3,7,10.3c1.2,1.8,2.8,5.8,2.8,5.8"/>
		<path fill="none" stroke="#B2B2B2" stroke-miterlimit="10" d="M246.9,178.8c0,0,5.8-1.7,9.7-4.5c3.9-2.8,6.9-4.8,10.4-5.5
			s6.7,1,8.3-1.3c1.7-2.3,2.3-2.2,3.8-7.3c1.5-5.2,3.5-8.7,5.8-8.3c2.3,0.3,6.6,8.3,8.4,8.7c1.8,0.3,5.8,2.3,7.5,1.5
			c1.7-0.8,6-2.2,9.8-13.8c3.8-11.7,2.8-9.7,3.3-14.2s-2-8.2-8.4-11.2s-7.2-13.3-7.2-13.3l-1-7.8"/>
		<path fill="none" stroke="#B2B2B2" stroke-miterlimit="10" d="M174.4,258.3c0-0.5,0.8-7.3,0-8.7c-0.8-1.3-4.5-4.2-4.3-5.2
			c0.2-1,1.2-3.8,2.3-5.3c1.2-1.5,2-3.2,4.5-2.7s5.5,1,5.8-0.1c0.3-1.1,1.5-15.9,1.5-18.2c0-2.3,0.6-9.3,2-9.8s9,0.8,10,0
			c1-0.8,5.9-1.9,5.1-4c-0.8-2.1-1.5-5.1-2.3-7.1c-0.8-2,0.9-5.2,2.3-5.3c1.4-0.2,4.7,1.5,5.4,0c0.7-1.5-1-6.8,1-7.7
			c2-0.8,5,0,5-1.2s0-8,0-8"/>
		<path fill="none" stroke="#B2B2B2" stroke-miterlimit="10" d="M223,172.3c0,0-4.1,2.8-7.6,2.7s-6.7-6.2-8-5.3
			c-1.3,0.8-3.2,5.5-4.7,5.3c-1.5-0.2-10.8-7.8-15.3-9.7c-4.5-1.8-20.8-6.3-22.7-8c-1.8-1.7-6-5-6-5"/>
		<path fill="none" stroke="#B2B2B2" stroke-miterlimit="10" d="M182.6,230.9c0,0-8.3-2-9.8-4.8c-1.5-2.8-7.7-13-7.2-20.2
			s0.3-8.7-1.2-9.5s-5.3-5.2-5.7-6.7s-1-7-2-9.2c-1-2.2,1.2-8.8,2-9.7s9.9-11.9,9.9-11.9"/>
		<path fill="none" stroke="#B2B2B2" stroke-miterlimit="10" d="M154.9,256.6c0,0-2.5-2.3-1.3-4.7c1.2-2.3,3.8-4.8,2.9-7.5
			c-0.9-2.7-1.6-5-5.2-5.3c-3.7-0.3-7.2-2.7-5.7-6.2s4-3.3,1.8-5.8c-2.2-2.5-7.7-7.2-9.9-6.5c-2.2,0.7-12,6.8-14.5,5.7
			c-2.4-1.2-18.8-10.5-18.8-10.5s-8.2-5.7-9.2-5c-1,0.7-1.8,2.7-1.7,4.2c0.2,1.5-2,5.5-4.4,5.2c-2.4-0.3-2.6-1.3-2.4-3.5
			c0.2-2.2-1-4-4.2-5c-3.2-1-3.3-1-5.5,1.7c-2.2,2.7-8.2,14.2-10.8,16c-2.7,1.8-4.2,4.3-5.2,3.2s-3.2-5.7-6.2-5s-6.2,2.8-6.3,4.7
			c-0.2,1.8-0.3,4.5-1.3,3.5s-2-3.8-4-3.3c-1.4,0.3-2.2,1.3-2.9,2.1c-0.3,0.4-0.6,0.7-0.9,0.9c-0.8,0.7-4.8,1.5-4.8,1.5"/>
		<path fill="none" stroke="#B2B2B2" stroke-miterlimit="10" d="M40.9,234.9c0,0,3.8-1,4.5,1c0.7,2-2.2,15.5-2.2,15.5
			s-1.8,8.3-2.2,10.3"/>
		<path fill="none" stroke="#B2B2B2" stroke-miterlimit="10" d="M49.4,268.3c0,0,1.8-8.5,3.5-10c1.7-1.5,5.2-5.8,10-5.2
			c4.8,0.7,3.2,1,4.2-1.8c1-2.8,5-9.3,6.7-9.8s9.7,1.3,11.5,1.7c1.8,0.3,9.4,0.5,10.3,2s4.5,6.1,3,9.7s-4.3,9.5-5.7,10.3
			c-1.3,0.8-3,3.7-2.5,5.7s-1.2,3.8-4,3.3c-2.8-0.5-7.8-2.5-10.3,0.1c-2.5,2.6-4.9,4.6-5.5,13.4"/>
		<path fill="none" stroke="#B2B2B2" stroke-miterlimit="10" d="M19.8,150.8c0,0,9-1.2,11.3-4.6c2.3-3.3,8-9.5,9.8-10.3
			c1.8-0.8,5.5-1.8,9.3-2s9.2-2.2,12.3-5s6.2-6,9.8-6.7c3.7-0.7,4.8-1.5,6.2-2.5c1.3-1,4-1.7,3.7-0.7s-1.2,8.5-1.2,8.5
			c2.2,3,4.2,6.9,3.3,7.1c-0.8,0.2-4.3,2.5-5.5,3.2c-1.2,0.7-2.7,1.8-2.5,2.2c0.2,0.4,4.8,3.1,3.8,4.1s-0.8,1-3.3,1.7s-5,0.5-5,2
			s0,7.3,1,7.8s1.7,2.5,2,4.3c0.3,1.8-1,6.9-0.7,8.6s1.6,4,1.4,6.2c-0.2,2.2-0.8,9.3-1.4,11.5c-0.6,2.2,0,5.3,0,5.3s4.6,0,5.1,0.7
			s2.2,1.8,1,2.6s-3.8,1.8-1.2,2.1c2.7,0.3,5.6-0.7,5.5,0.8c0,1.5-1.2,6.8,0.8,7.2c2,0.3,4.3,2,6.2,0.8c1.8-1.2,2.3-2,3-1.2
			c0.7,0.8,0.5,6,0.5,6"/>
		<path fill="none" stroke="#B2B2B2" stroke-miterlimit="10" d="M134.9,221.8c0.9-0.4,1.7-11.7,1.2-13.9s-2.3-5.9-5.7-5.7
			c-3.3,0.2-4.5,3-7.4-2.3c-2.9-5.3-11.4-15.5-15.3-15s-10.8,6.3-12.6,7.3s-7.6,5.5-10.5,5.7"/>
		<path fill="none" stroke="#B2B2B2" stroke-miterlimit="10" d="M76.1,146.1c0.8-0.2,14.8-0.4,16.8,6.1s-0.5,9,1.5,11.3
			s3.7,5.3,10,3.8c6.3-1.5,4.8-8.2,4.8-12.3c0-4.2,0.1-5.9,0.2-8.2c0-2.3,1.5-5.5,5.5-6.7s8.7-0.6,10.8,1.8s1.8,11.7,1.8,11.8
			s0.2,5.3,2.7,5.3s7.5-4.1,9.7-6.1c2.2-2,4.8-3.8,4.8-3.8"/>
		<path fill="none" stroke="#B2B2B2" stroke-miterlimit="10" d="M81.3,125.8c0-0.1,9.1,2,13.1,0s17-13.7,17.3-15.5s0.5-6-1.3-7.2
			c-1.8-1.2-7.2-3-6.2-6.5s7-3.3,9.7-5.2c2.7-1.8,7.5-5.2,7.3-6.3c-0.2-1.2-3.3-3.8-2.8-5.8s5.8-5.2,5.5-6c-0.3-0.8-3.3-4.8-2.7-5.7
			c0.7-0.8,3.7-1.5,2.7-3c-1-1.5-5.8-4.7-6.5-7c-0.7-2.3-1.3-8-2-10.2c-0.7-2.2-2-5-1-5.7s3.5-0.7,4-1.5s1.7-2.8,1.2-6
			s-2.7-4.2-2-5.5c0.7-1.3,2.8-0.7,2-2.2c-0.8-1.5-6.2-7.4-5.8-7.6"/>
		<path fill="none" stroke="#B2B2B2" stroke-miterlimit="10" d="M160.5,3.1c0,0,1.6,10.2,2.1,12.7s2,11,0,13.5s-6.5,9.3-3.8,13.8
			s5.7,4.3,13,4.3c3.8,0,9.1,1,12.2,1.7c1.4,0.3,2.3,0.6,2.5,0.7c2.3,1.2,10.7,4.3,14.2,1.5s5.5-6.2,5.3-8.8c-0.2-2.7,0-6.7,0-6.7"
			/>
		<path fill="none" stroke="#B2B2B2" stroke-miterlimit="10" d="M183.7,50.6c0,0-3.5,7-4.5,9.2s-5.2,7-5.7,8.8
			c-0.5,1.8-0.2,7.3,0,7.7c0.2,0.3,3.8,0.7,6,1.7c2.2,1,10.7,5,12.2,5.2c1.5,0.2,3.2,0.2,5.7,0c2.5-0.2,4.7-0.8,4.7,0.1
			s0.3,4,2.7,4.4c2.3,0.3,7,2,8.3,1.5c1.3-0.5,3.7-3,4.7-5.7c1-2.7,4.8-8.7,6.7-9.2c1.8-0.5,6.5-2.5,7.7-3.2c1.2-0.7,1.6-3.5,1.8-4
			c0.2-0.5-3.6-7.5-4.6-8.3s-7-7.5-6-9.2c1-1.7,0-6.8-1-9.5c-1-2.7-1.6-5.9-1.6-5.9"/>
		<path fill="none" stroke="#B2B2B2" stroke-miterlimit="10" d="M267.2,30.6c0,0,2.5,7.2,0,11.5c-2.5,4.3-4.3,8.3-11.5,12.5
			s-18.2,10.7-19.3,10.8c-1.2,0.2-2.9,0.6-2.9,0.6"/>
		<path fill="none" stroke="#B2B2B2" stroke-miterlimit="10" d="M320.9,93.9c0,0-7.2-1-12,2.5c-4.8,3.5-11,6.8-16.3,6.8
			s-8.5,2.3-12.8,5c-4.3,2.7-14,10.2-17.2,10s-18-2.7-19-2.2c0,0-1.3-2.3-3.2-5c-1.9-2.7-4.8-3.5-9.8-6.5c-4.9-3-5.6-5-8.6-7
			s-7.2-9.8-7.2-9.8"/>
		<path fill="none" stroke="#B2B2B2" stroke-miterlimit="10" d="M242.6,116.3c0,0-4.2,4.5-4.2,7s-0.7,6.8-1,8.2
			c-0.3,1.4-5.1,3.1-5.6,3.5s-4.7,1.9-6.6,0c-1.8-1.9-12.5-18.4-14.7-20.4c-2.2-2-10.2-13.5-16.3-13s-8.2,3.8-9.7,5.3
			s-3.3,3.7-5.5,3.5c-2.2-0.2-3.5,0.2-4.2,2.5c-0.7,2.3,0.8,9,0,10.2c-0.8,1.2-2.3,0.7-4,1.1c-1.7,0.4-3.7,2.7-4,4.2
			c-0.3,1.5-2.1,6.2-1.8,7.4c0.3,1.2,2.4,2.6,1.8,3.7c-0.6,1-1.4,1.2-1.8,2.2s-0.5,3.9-0.8,5.1s-4.1,5.2-7.6,6.8
			c-3.4,1.6-3.6,2.4-3.4,1.6c0.2-0.8-1.2-5.7-1.3-6.3c-0.2-0.7-3,3.7-3.8,3.3c-0.8-0.3-5.3-3.1-4.8-5.4s4-3.3,3.7-5.8
			c-0.3-2.5-2.8-7-4.3-9.6c-1.5-2.6-2-9.6-1.5-12.1s2.7-5.5,2.8-6.8c0.2-1.3-0.8-3.3-1.5-4.2c-0.7-0.8-3.8-3.3-3.8-5.4
			c0-2.1,2.7-3.6,2.7-4.8s1.7-6.2-0.2-7c-1.8-0.8,0.2,2.8-3.6,1.3c-3.7-1.5-7.6-3.5-9.1-6.2c-1.5-2.7-2.2-3.8-7.2-1.3"/>
		<path fill="none" stroke="#B2B2B2" stroke-miterlimit="10" d="M176.9,77.1c-0.3,1,1.5,3.6,0.7,6.6c-0.8,3-2.5,7.5-3.2,9.5
			c-0.7,2-3.2,7.3-6.8,6.8c-3.7-0.5-7.3-2.3-8.8,0s-2.5,8.6-5.8,9.3c-3.3,0.7-10.5-1-10.5-1"/>
		<path fill="none" stroke="#B2B2B2" stroke-miterlimit="10" d="M116.4,52.5c0.1,0.4,5,0.3,6.7-2.7c1.7-3,4.8-10.5,7.9-10.7
			c3.1-0.2,11.6,2.5,13.8,0s4.7-10.8,6.8-10.3c2.2,0.5,0.8,6.2,2.7,7.3c1.8,1.2,4,1.5,4,1.5"/>
		<path fill="none" stroke="#B2B2B2" stroke-miterlimit="10" d="M267,269.1c-1.1,0.8-1.5,5.7-1.5,8.3s3.7,5.2,8.5,5.7
			s7.5,0.2,8.7-1.8c1.2-2,2.6-7.2-1.4-9.7C277.4,269.1,272,265.6,267,269.1z"/>
	</g>
	<g>
		<g>
			<circle fill="#575756" cx="119.7" cy="157.7" r="3.2"/>
			<text transform="matrix(1 0 0 1 116.4196 176.6731)" fill="#575756" font-family="'OpenSans-CondensedBold'" font-size="12">Poznań</text>
		</g>
		<g>
			<circle fill="#575756" cx="190.7" cy="181.5" r="3.2"/>
			<text transform="matrix(1 0 0 1 187.4196 200.5412)" fill="#575756" font-family="'OpenSans-CondensedBold'" font-size="12">Konin</text>
		</g>
		<g>
			<circle fill="#575756" cx="49.5" cy="153" r="3.2"/>
			<text transform="matrix(1 0 0 1 46.2445 172.0481)"><tspan x="0" y="0" fill="#575756" font-family="'OpenSans-CondensedBold'" font-size="12">Gorzów</tspan><tspan x="0" y="14.4" fill="#575756" font-family="'OpenSans-CondensedBold'" font-size="12">Wlkp.</tspan></text>
		</g>
		<g>
			<circle fill="#575756" cx="105.6" cy="201.8" r="3.2"/>
			<text transform="matrix(1 0 0 1 102.3779 220.7981)" fill="#575756" font-family="'OpenSans-CondensedBold'" font-size="12">Leszno</text>
		</g>
		<g>
			<circle fill="#575756" cx="124.5" cy="101.8" r="3.2"/>
			<text transform="matrix(1 0 0 1 121.2445 120.7981)" fill="#575756" font-family="'OpenSans-CondensedBold'" font-size="12">Piła</text>
		</g>
		<g>
			<circle fill="#575756" cx="140.7" cy="23" r="3.2"/>
			<text transform="matrix(1 0 0 1 137.4945 42.0481)" fill="#575756" font-family="'OpenSans-CondensedBold'" font-size="12">Słupsk</text>
		</g>
		<g>
			<circle fill="#575756" cx="104.8" cy="45.7" r="3.2"/>
			<text transform="matrix(1 0 0 1 71.6509 52.4644)"><tspan x="0" y="0" fill="#575756" font-family="'OpenSans-CondensedBold'" font-size="12">Nowe</tspan><tspan x="-2.6" y="11" fill="#575756" font-family="'OpenSans-CondensedBold'" font-size="12">Bielice</tspan></text>
		</g>
		<g>
			<circle fill="#575756" cx="198.7" cy="38" r="3.2"/>
			<text transform="matrix(1 0 0 1 195.4945 57.0481)" fill="#575756" font-family="'OpenSans-CondensedBold'" font-size="12">Gdańsk</text>
		</g>
		<g>
			<circle fill="#575756" cx="237.1" cy="69.3" r="3.2"/>
			<text transform="matrix(1 0 0 1 233.8847 88.3396)" fill="#575756" font-family="'OpenSans-CondensedBold'" font-size="12">Elbląg</text>
		</g>
		<g>
			<circle fill="#575756" cx="291" cy="142.8" r="3.2"/>
			<text transform="matrix(1 0 0 1 287.743 161.8396)" fill="#575756" font-family="'OpenSans-CondensedBold'" font-size="12">Ciechanów</text>
		</g>
		<g>
			<circle fill="#575756" cx="359" cy="178.3" r="3.2"/>
			<text transform="matrix(1 0 0 1 355.743 197.2912)" fill="#575756" font-family="'OpenSans-CondensedBold'" font-size="12">Siedlce</text>
		</g>
		<g>
			<circle fill="#575756" cx="278.1" cy="277.7" r="3.2"/>
			<text transform="matrix(1 0 0 1 284.3845 280.9229)" fill="#575756" font-family="'OpenSans-CondensedBold'" font-size="12">Kielce</text>
		</g>
		<g>
			<circle fill="#575756" cx="296.7" cy="182.9" r="3.2"/>
			<text transform="matrix(1 0 0 1 293.4515 201.9162)" fill="#575756" font-family="'OpenSans-CondensedBold'" font-size="12">Warszawa</text>
		</g>
		<g>
			<circle fill="#575756" cx="252.7" cy="168.8" r="3.2"/>
			<text transform="matrix(1 0 0 1 249.4515 187.798)" fill="#575756" font-family="'OpenSans-CondensedBold'" font-size="12">Płock</text>
		</g>
		<g>
			<circle fill="#575756" cx="237.1" cy="211.8" r="3.2"/>
			<text transform="matrix(1 0 0 1 233.8844 230.798)" fill="#575756" font-family="'OpenSans-CondensedBold'" font-size="12">Łódź</text>
		</g>
		<g>
			<circle fill="#575756" cx="379.6" cy="237.9" r="3.2"/>
			<text transform="matrix(1 0 0 1 376.3844 256.9231)" fill="#575756" font-family="'OpenSans-CondensedBold'" font-size="12">Lublin</text>
		</g>
		<g>
			<circle fill="#575756" cx="350.9" cy="299.9" r="3.2"/>
			<text transform="matrix(1 0 0 1 347.6344 318.9231)" fill="#575756" font-family="'OpenSans-CondensedBold'" font-size="12">Tarnobrzeg</text>
		</g>
		<g>
			<circle fill="#575756" cx="233.9" cy="303.2" r="3.2"/>
			<text transform="matrix(1 0 0 1 230.6344 322.1731)" fill="#575756" font-family="'OpenSans-CondensedBold'" font-size="12">Częstochowa</text>
		</g>
		<g>
			<circle fill="#575756" cx="170.1" cy="292" r="3.2"/>
			<text transform="matrix(1 0 0 1 166.8844 311.0481)" fill="#575756" font-family="'OpenSans-CondensedBold'" font-size="12">Opole</text>
		</g>
		<g>
			<circle fill="#575756" cx="134.2" cy="271.3" r="3.2"/>
			<text transform="matrix(1 0 0 1 130.9943 290.2981)" fill="#575756" font-family="'OpenSans-CondensedBold'" font-size="12">Wrocław</text>
		</g>
		<g>
			<circle fill="#575756" cx="92.2" cy="273" r="3.2"/>
			<text transform="matrix(1 0 0 1 88.9943 292.048)" fill="#575756" font-family="'OpenSans-CondensedBold'" font-size="12">Jawor</text>
		</g>
		<g>
			<circle fill="#575756" cx="204.6" cy="324.3" r="3.2"/>
			<text transform="matrix(1 0 0 1 201.3844 343.2814)" fill="#575756" font-family="'OpenSans-CondensedBold'" font-size="12">Chorzów</text>
		</g>
		<g>
			<circle fill="#575756" cx="259.9" cy="352.8" r="3.2"/>
			<text transform="matrix(1 0 0 1 256.6344 371.7814)" fill="#575756" font-family="'OpenSans-CondensedBold'" font-size="12">Kraków</text>
		</g>
		<g>
			<circle fill="#575756" cx="349.6" cy="330.8" r="3.2"/>
			<text transform="matrix(1 0 0 1 346.3844 349.7814)" fill="#575756" font-family="'OpenSans-CondensedBold'" font-size="12">Rzeszów</text>
		</g>
		<g>
			<circle fill="#575756" cx="327.6" cy="275.9" r="3.2"/>
			<text transform="matrix(1 0 0 1 324.3844 294.9231)" fill="#575756" font-family="'OpenSans-CondensedBold'" font-size="12">Ostrowiec Św.</text>
		</g>
		<g>
			<circle fill="#575756" cx="198.7" cy="135" r="3.2"/>
			<text transform="matrix(1 0 0 1 195.4944 153.9646)" fill="#575756" font-family="'OpenSans-CondensedBold'" font-size="12">Toruń</text>
		</g>
		<g>
			<circle fill="#575756" cx="210" cy="107.2" r="3.2"/>
			<text transform="matrix(1 0 0 1 206.7444 126.2145)" fill="#575756" font-family="'OpenSans-CondensedBold'" font-size="12">Grudziądz</text>
		</g>
		<g>
			<circle fill="#575756" cx="284.6" cy="82.8" r="3.2"/>
			<text transform="matrix(1 0 0 1 281.3846 101.7981)" fill="#575756" font-family="'OpenSans-CondensedBold'" font-size="12">Olsztyn</text>
		</g>
		<g>
			<circle fill="#575756" cx="392.1" cy="55.7" r="3.2"/>
			<text transform="matrix(1 0 0 1 358.2303 74.7146)" fill="#575756" font-family="'OpenSans-CondensedBold'" font-size="12">Suwałki</text>
		</g>
		<g>
			<circle fill="#575756" cx="410.5" cy="131.9" r="3.2"/>
			<text transform="matrix(1 0 0 1 359.2691 135.1731)" fill="#575756" font-family="'OpenSans-CondensedBold'" font-size="12">Białystok</text>
		</g>
		<g>
			<circle fill="#575756" cx="313.7" cy="237.9" r="3.2"/>
			<text transform="matrix(1 0 0 1 272.8667 241.1731)" fill="#575756" font-family="'OpenSans-CondensedBold'" font-size="12">Radom</text>
		</g>
		<g>
			<circle fill="#575756" cx="176.7" cy="86" r="3.2"/>
			<text transform="matrix(1 0 0 1 129.1226 89.2981)" fill="#575756" font-family="'OpenSans-CondensedBold'" font-size="12">Chojnica</text>
		</g>
		<g>
			<circle fill="#575756" cx="206.7" cy="79.5" r="3.2"/>
			<text transform="matrix(1 0 0 1 203.4945 98.5481)" fill="#575756" font-family="'OpenSans-CondensedBold'" font-size="12">Tczew</text>
		</g>
	</g>
	<path fill="none" stroke="#F29100" stroke-width="4" stroke-miterlimit="10" d="M83.4,40.1c0,0,11-1.3,14.3-5s11.3-13.7,14.3-15.3
		s23.7-9,27.3-10c3.7-1,21.7-8.7,31-7.7c9.3,1,18-1.3,26.7,5.3c8.7,6.7,12,13.2,9.7,13.6s-6.3-2.3-9.7-5.6c-3.3-3.3-8-6.3-7.7-3
		c0.3,3.3,4.7,14.7,7,17.3c2.3,2.7,7,8.3,19.3,5.7c12.3-2.7,24.6-8,24.6-8s62.4,7.7,74,7.3c11.7-0.3,45.3-4,51.3-7s7.7-3.7,10-0.3
		c2.3,3.3,8,8,13,9.3s8.3,8.7,8.3,15s3.3,17.7,4.3,19.3c1,1.7,3.7,10.3,4.7,15.3s5,16.7,7.3,22.3c2.3,5.7,7.3,15.7,6,22.3
		c-1.3,6.7-0.3,9.3-2.7,11.3c-2.3,2-7,4.7-8.3,6.7c-1.3,2-7,7.7-9,8.3s-7.3,7.7-7.3,10.7s2.3,8.7,9,11.7s9.7,6.7,10.7,9
		c1,2.3,1.7,8.3,0.7,17.7s-0.7,19,1,23.7c1.7,4.7,9.7,15.7,11,19c1.3,3.3,10.3,23.3,11,25.7c0.7,2.3,8.3,17,0,20.7
		c-8.3,3.7-19,18.3-20.7,20c-1.7,1.7-14.3,20.7-15.7,22.7s-12.7,15-14.3,17.3c-1.7,2.3-7,8.7-6.3,11.3c0.7,2.7,5.3,4.7,5.3,8.7
		s-1.3,14.7,0.7,15.7s8.7,7,8.7,9s-7.7,4-15,0s-19.3-8.7-21-10.3c-1.7-1.7-14-11-18.3-12.3c-4.3-1.3-12-4.3-16.7-3.7
		c-4.7,0.7-11.7-1.3-13.7,3c-2,4.3-4,8.3-5.7,7.7c-1.7-0.7-10.7-8.7-12-8.7c-1.3,0-20.7,3.3-24,8.3c-3.3,5-3.3,10-9.3,9.7
		c-6-0.3-8.3,0.7-8-3c0.3-3.7-0.3-9-2-11c-1.7-2-10.7-6.7-11.7-10c-1-3.3-5-8.3-8-4c-3,4.3-7.3,17-11.3,16.3c-4-0.7-7.3-10-8.3-12.7
		s-9.3-10.4-10.7-12.1c-1.3-1.6-3-9.3-3-10.6c0-1.3-1.3-2.7-4.3-4c-3-1.3-14.7-5.3-17.7-7.7c-3-2.3-6-1-7.7,1.3s-8.3,2.7-10.7-2
		c-2.3-4.7-4-7.7-2-10.3c2-2.7,5.7-4,5.7-6.7s-3.7-5-6-3.7c-2.3,1.3-7.7,5-15.7-1s-15-8.3-17-6.3s-0.7,5,1.3,7.7c2,2.7,4,5.3,2,7.3
		s-5.3,1.7-7.3,3.3c-2,1.7-8.7,5.7-9.7,4.3c-1-1.3-10-15.7-11.7-17.7s-7.7-8.7-5.7-10.3c2-1.7,9.7-2.3,9.3-5
		c-0.3-2.7-4.3-8.3-11.3-7.7s-11,4.3-14.3,0.3s-14.7-12.7-18.3-15.7c-3.7-3-11.3-9-13-9.3c-1.7-0.3-4-2.7-6.3,3.3s-6.7,7-7.7,5
		s-2.7-1,2.7-9.7c5.3-8.7,8.7-18.7,5.3-25.7c-3.3-7-11-10-11.7-16.3c-0.7-6.3-2.7-19.3-1.7-22.3s8-12,7-14.7s-7.5-11.3-7.3-15.7
		c0.3-4.3,1.9-13.7,1.6-14.7c-0.3-1-7-5-8-6.7s-4.7-9.7-7.3-10s-4.7-3-5-6s0.3-6,3.3-9s11-9.3,10.7-16c-0.3-6.7-3.7-29.3-4.7-31.7
		s0.7-5.3,0-8c-0.7-2.7-1-6.7-0.3-8c0.7-1.3,6.7,0.7,6.7,0.7c7-1.3,28.7-10.3,31.7-11C52.4,46.8,74.1,40.4,83.4,40.1z"/>
</g>
</svg>
