<?xml version="1.0" encoding="utf-8"?>
<!-- Generator: Adobe Illustrator 18.0.0, SVG Export Plug-In . SVG Version: 6.00 Build 0)  -->
<!DOCTYPE svg PUBLIC "-//W3C//DTD SVG 1.0//EN" "http://www.w3.org/TR/2001/REC-SVG-20010904/DTD/svg10.dtd">
<svg version="1.0" id="Warstwa_1" xmlns="http://www.w3.org/2000/svg" xmlns:xlink="http://www.w3.org/1999/xlink" x="0px" y="0px"
	 viewBox="0 0 56.1 52.4" enable-background="new 0 0 56.1 52.4" xml:space="preserve">
<g>
	<path fill="#FF9100" d="M0,25.3C0,18.4,1.2,15,3.6,15c0.1,0,0.5,0.2,1.3,0.6c0.7,0.4,1.7,0.8,2.8,1.2c1.2,0.4,2.3,0.6,3.5,0.6
		c1.3,0,2.6-0.2,3.9-0.7C15,17.5,15,18.1,15,18.7c0,2.7,0.8,5.2,2.4,7.5c-3.2,0.1-5.7,1.3-7.7,3.7H5.7c-1.6,0-2.9-0.4-4-1.2
		C0.5,28,0,26.8,0,25.3z M5.9,12.8c-1.5-1.5-2.2-3.2-2.2-5.3c0-2.1,0.7-3.8,2.2-5.3C7.4,0.7,9.2,0,11.2,0c2.1,0,3.8,0.7,5.3,2.2
		c1.5,1.5,2.2,3.2,2.2,5.3c0,2.1-0.7,3.8-2.2,5.3c-1.5,1.5-3.2,2.2-5.3,2.2C9.2,15,7.4,14.2,5.9,12.8z M7.5,44.8c0-1,0-2,0.1-3
		c0.1-1,0.2-2,0.4-3.2c0.2-1.1,0.5-2.2,0.8-3.2c0.3-1,0.7-1.9,1.3-2.8c0.5-0.9,1.1-1.7,1.8-2.4c0.7-0.7,1.5-1.2,2.5-1.6
		c1-0.4,2.1-0.6,3.3-0.6c0.2,0,0.6,0.2,1.3,0.6c0.6,0.4,1.4,0.9,2.1,1.4c0.8,0.5,1.8,1,3.1,1.4c1.3,0.4,2.6,0.6,3.9,0.6
		c1.3,0,2.6-0.2,3.9-0.6c1.3-0.4,2.3-0.9,3.1-1.4c0.8-0.5,1.5-1,2.1-1.4c0.6-0.4,1.1-0.6,1.3-0.6c1.2,0,2.3,0.2,3.3,0.6
		c1,0.4,1.8,0.9,2.5,1.6c0.7,0.7,1.3,1.4,1.8,2.4c0.5,0.9,0.9,1.9,1.3,2.8c0.3,1,0.6,2,0.8,3.2c0.2,1.1,0.3,2.2,0.4,3.2
		c0.1,1,0.1,2,0.1,3c0,2.3-0.7,4.2-2.1,5.5c-1.4,1.4-3.3,2-5.7,2H15.3c-2.4,0-4.2-0.7-5.7-2C8.2,49,7.5,47.1,7.5,44.8z M20.1,26.6
		c-2.2-2.2-3.3-4.8-3.3-7.9c0-3.1,1.1-5.7,3.3-7.9c2.2-2.2,4.8-3.3,7.9-3.3c3.1,0,5.7,1.1,7.9,3.3c2.2,2.2,3.3,4.8,3.3,7.9
		c0,3.1-1.1,5.7-3.3,7.9c-2.2,2.2-4.8,3.3-7.9,3.3C25,29.9,22.3,28.8,20.1,26.6z M39.6,12.8c-1.5-1.5-2.2-3.2-2.2-5.3
		c0-2.1,0.7-3.8,2.2-5.3C41.1,0.7,42.8,0,44.9,0c2.1,0,3.8,0.7,5.3,2.2c1.5,1.5,2.2,3.2,2.2,5.3c0,2.1-0.7,3.8-2.2,5.3
		C48.7,14.2,47,15,44.9,15C42.8,15,41.1,14.2,39.6,12.8z M38.8,26.2c1.6-2.3,2.4-4.8,2.4-7.5c0-0.6,0-1.2-0.1-1.9
		c1.3,0.4,2.6,0.7,3.9,0.7c1.1,0,2.3-0.2,3.5-0.6c1.2-0.4,2.1-0.8,2.8-1.2c0.7-0.4,1.2-0.6,1.3-0.6c2.4,0,3.6,3.4,3.6,10.3
		c0,1.5-0.5,2.7-1.6,3.5c-1.1,0.8-2.4,1.2-4,1.2h-3.9C44.5,27.5,41.9,26.3,38.8,26.2z"/>
</g>
</svg>
