<?xml version="1.0" encoding="utf-8"?>
<!-- Generator: Adobe Illustrator 18.0.0, SVG Export Plug-In . SVG Version: 6.00 Build 0)  -->
<!DOCTYPE svg PUBLIC "-//W3C//DTD SVG 1.0//EN" "http://www.w3.org/TR/2001/REC-SVG-20010904/DTD/svg10.dtd">
<svg version="1.0" id="Layer_1" xmlns="http://www.w3.org/2000/svg" xmlns:xlink="http://www.w3.org/1999/xlink" x="0px" y="0px"
	 viewBox="0 0 48 48" enable-background="new 0 0 48 48" xml:space="preserve">
<g>
	<path fill="#FF9202" d="M24.2,47.7c-3.3,0-6.4-0.6-9.3-1.9c-2.9-1.2-5.4-2.9-7.6-5.1c-2.2-2.1-3.9-4.7-5.1-7.6
		c-1.2-2.9-1.9-6-1.9-9.3s0.6-6.4,1.9-9.3c1.2-2.9,3-5.4,5.1-7.6s4.7-3.9,7.6-5.1c2.9-1.2,6-1.9,9.3-1.9s6.4,0.6,9.3,1.9
		c2.9,1.2,5.4,3,7.6,5.1s3.9,4.7,5.1,7.6c1.2,2.9,1.9,6,1.9,9.3s-0.6,6.4-1.9,9.3c-1.2,2.9-2.9,5.4-5.1,7.6
		c-2.1,2.2-4.7,3.9-7.6,5.1C30.6,47.1,27.5,47.7,24.2,47.7z M14.2,26.6h1.7v8.3h1.6v-8.3h1.7v-1.4h-5V26.6z M15.8,12.6l2.1,6.4v4.2
		h1.8v-4.4l2.1-6.3H20l-1.2,4.3h-0.1l-1.2-4.3H15.8z M23.9,27.8h-1.4v5.4c-0.2,0.2-0.3,0.3-0.4,0.3c-0.1,0.1-0.3,0.1-0.4,0.1
		c-0.2,0-0.3,0-0.3-0.1c0,0,0-0.1,0-0.2c0-0.1,0-0.1,0-0.2v-5.4h-1.4v6c0,0.4,0.1,0.7,0.3,1c0.1,0.2,0.4,0.3,0.7,0.3
		c0.3,0,0.5-0.1,0.8-0.2c0.3-0.1,0.6-0.4,0.8-0.7v0.8h1.4V27.8z M22,21.3c0,0.6,0.2,1.2,0.6,1.6c0.4,0.4,1,0.6,1.7,0.6
		s1.3-0.2,1.7-0.6c0.4-0.3,0.6-0.8,0.6-1.6v-4.1c0-0.6-0.2-1.1-0.6-1.4c-0.4-0.4-1-0.6-1.6-0.6s-1.3,0.2-1.8,0.5
		c-0.4,0.4-0.6,0.9-0.6,1.5V21.3z M24.3,22.1c-0.2,0-0.4-0.1-0.5-0.2c-0.1-0.2-0.1-0.3-0.1-0.5v-4.3c0-0.2,0.1-0.3,0.2-0.4
		c0-0.1,0.2-0.2,0.5-0.2c0.2,0,0.3,0.1,0.5,0.2c0.1,0.1,0.2,0.2,0.2,0.4v4.3c0,0.2-0.1,0.3-0.2,0.5C24.6,22.1,24.5,22.1,24.3,22.1z
		 M27.7,27.7c-0.3,0-0.5,0-0.7,0.1c-0.3,0.2-0.5,0.3-0.6,0.5v-3.1H25v9.6h1.4v-0.5c0.1,0.1,0.3,0.3,0.6,0.5c0.3,0.1,0.5,0.1,0.7,0.1
		c0.4,0,0.7-0.1,1-0.4c0.2-0.3,0.3-0.7,0.3-1.2v-3.9c0-0.5-0.1-1-0.3-1.4C28.4,27.8,28.1,27.7,27.7,27.7z M26.4,29.1
		c0,0,0.1-0.1,0.1-0.1c0,0,0.1-0.1,0.1-0.1c0.1,0,0.1,0,0.2,0c0,0,0.1,0,0.2,0c0.2,0,0.3,0.1,0.4,0.2c0.1,0.1,0.1,0.3,0.1,0.5v3.7
		c0,0.3,0,0.4-0.1,0.5c-0.1,0.1-0.3,0.2-0.4,0.2c-0.1,0-0.1,0-0.2,0c0,0-0.1,0-0.2,0c-0.1,0-0.2-0.1-0.3-0.3V29.1z M27.9,22
		c0,0.4,0.1,0.7,0.3,1c0.2,0.3,0.5,0.4,0.9,0.4c0.2,0,0.5-0.1,0.9-0.3c0.2-0.1,0.4-0.2,0.5-0.3c0.2-0.1,0.3-0.3,0.4-0.4v0.9h1.6
		v-7.9h-1.6v6c-0.1,0.2-0.3,0.3-0.5,0.4C30.2,21.9,30,22,29.9,22c-0.1,0-0.2,0-0.3-0.1c0,0-0.1-0.2-0.1-0.4v-6h-1.6V22z M34,29.7
		c0-0.6-0.2-1.1-0.5-1.6c-0.4-0.4-0.9-0.5-1.5-0.5c-0.6,0-1.2,0.2-1.6,0.6c-0.4,0.4-0.6,0.9-0.6,1.5v3.2c0,0.6,0.2,1.2,0.5,1.6
		c0.4,0.4,0.9,0.6,1.5,0.6c0.7,0,1.3-0.2,1.6-0.5c0.4-0.5,0.5-1,0.5-1.7v-0.3h-1.5v0.3c0,0.5,0,0.7-0.1,0.8
		c-0.1,0.1-0.2,0.1-0.5,0.1c-0.3,0-0.4-0.1-0.5-0.2c-0.1-0.1-0.1-0.3-0.1-0.7v-1.4H34V29.7z M31.4,29c0.1-0.1,0.2-0.1,0.5-0.1
		c0.2,0,0.4,0,0.5,0.1c0.1,0.2,0.1,0.4,0.1,0.7v0.7h-1.2v-0.7C31.3,29.3,31.3,29.1,31.4,29z"/>
</g>
</svg>
